<svg  viewBox="0 0 48 48" fill="none" xmlns="http://www.w3.org/2000/svg">
<path d="M0.189805 1.8897C0.189805 1.43883 0.368912 1.00643 0.687724 0.687616C1.00654 0.368804 1.43894 0.189697 1.8898 0.189697H3.379C5.8508 0.189697 7.27201 1.7979 8.09481 3.3993C8.65581 4.4975 9.0604 5.8405 9.39701 6.9999H44.4C44.9257 6.99991 45.4443 7.12183 45.915 7.3561C46.3856 7.59036 46.7956 7.93058 47.1125 8.35003C47.4295 8.76947 47.6449 9.2567 47.7417 9.77343C47.8386 10.2902 47.8143 10.8223 47.6708 11.3281L42.5844 29.2597C42.181 30.6839 41.324 31.9376 40.1434 32.8304C38.9627 33.7233 37.523 34.2065 36.0428 34.2067H18.7742C17.2821 34.207 15.8313 33.7165 14.6455 32.8109C13.4597 31.9052 12.6046 30.6347 12.2122 29.1951L10.0294 21.1915C10.0168 21.1545 10.0055 21.1171 9.99541 21.0793L6.49001 9.1861C6.37394 8.80498 6.26061 8.42304 6.15001 8.0403C5.81001 6.8673 5.5108 5.8269 5.062 4.9497C4.5214 3.8957 4.02501 3.5897 3.37561 3.5897H1.88641C1.43554 3.5897 1.00314 3.41059 0.684323 3.09178C0.365511 2.77297 0.186405 2.34057 0.186405 1.8897H0.189805ZM13.273 20.1545L15.4932 28.3009C15.6894 29.0207 16.1169 29.656 16.7098 30.1088C17.3028 30.5616 18.0282 30.8069 18.7742 30.8067H36.0462C36.7859 30.8057 37.5052 30.5635 38.0949 30.1169C38.6845 29.6702 39.1124 29.0434 39.3136 28.3315L44.4 10.3999H10.4L13.273 20.1579V20.1545Z" fill="white"/>
<path d="M24 42.7C24 44.0526 23.4627 45.3498 22.5062 46.3062C21.5498 47.2627 20.2526 47.8 18.9 47.8C17.5474 47.8 16.2502 47.2627 15.2938 46.3062C14.3373 45.3498 13.8 44.0526 13.8 42.7C13.8 41.3474 14.3373 40.0502 15.2938 39.0937C16.2502 38.1373 17.5474 37.6 18.9 37.6C20.2526 37.6 21.5498 38.1373 22.5062 39.0937C23.4627 40.0502 24 41.3474 24 42.7ZM20.6 42.7C20.6 42.2491 20.4209 41.8167 20.1021 41.4979C19.7833 41.1791 19.3509 41 18.9 41C18.4491 41 18.0167 41.1791 17.6979 41.4979C17.3791 41.8167 17.2 42.2491 17.2 42.7C17.2 43.1508 17.3791 43.5832 17.6979 43.9021C18.0167 44.2209 18.4491 44.4 18.9 44.4C19.3509 44.4 19.7833 44.2209 20.1021 43.9021C20.4209 43.5832 20.6 43.1508 20.6 42.7Z" fill="white"/>
<path d="M41 42.7C41 44.0526 40.4627 45.3498 39.5062 46.3062C38.5498 47.2627 37.2526 47.8 35.9 47.8C34.5474 47.8 33.2502 47.2627 32.2938 46.3062C31.3373 45.3498 30.8 44.0526 30.8 42.7C30.8 41.3474 31.3373 40.0502 32.2938 39.0937C33.2502 38.1373 34.5474 37.6 35.9 37.6C37.2526 37.6 38.5498 38.1373 39.5062 39.0937C40.4627 40.0502 41 41.3474 41 42.7ZM37.6 42.7C37.6 42.2491 37.4209 41.8167 37.1021 41.4979C36.7833 41.1791 36.3509 41 35.9 41C35.4491 41 35.0167 41.1791 34.6979 41.4979C34.3791 41.8167 34.2 42.2491 34.2 42.7C34.2 43.1508 34.3791 43.5832 34.6979 43.9021C35.0167 44.2209 35.4491 44.4 35.9 44.4C36.3509 44.4 36.7833 44.2209 37.1021 43.9021C37.4209 43.5832 37.6 43.1508 37.6 42.7Z" fill="white"/>
</svg>
