<svg  viewBox="0 0 49 39" fill="none" xmlns="http://www.w3.org/2000/svg">
<g clip-path="url(#clip0)">
<path d="M42.1945 36.1945H6.80557C6.44458 36.1945 6.09838 36.3379 5.84312 36.5931C5.58786 36.8484 5.44446 37.1946 5.44446 37.5556C5.44446 37.9166 5.58786 38.2628 5.84312 38.518C6.09838 38.7733 6.44458 38.9167 6.80557 38.9167H42.1945C42.5555 38.9167 42.9017 38.7733 43.1569 38.518C43.4122 38.2628 43.5556 37.9166 43.5556 37.5556C43.5556 37.1946 43.4122 36.8484 43.1569 36.5931C42.9017 36.3379 42.5555 36.1945 42.1945 36.1945Z" fill="white"/>
<path d="M24.5 34.1256L38.9414 19.6842C39.1644 19.4238 39.2809 19.0889 39.2676 18.7463C39.2544 18.4037 39.1124 18.0788 38.87 17.8364C38.6276 17.594 38.3026 17.452 37.9601 17.4387C37.6175 17.4255 37.2826 17.542 37.0222 17.765L25.8611 28.9125V0.805569C25.8611 0.44458 25.7177 0.0983763 25.4624 -0.156882C25.2072 -0.412139 24.861 -0.555542 24.5 -0.555542C24.139 -0.555542 23.7928 -0.412139 23.5375 -0.156882C23.2823 0.0983763 23.1389 0.44458 23.1389 0.805569V28.9125L11.9914 17.765C11.8694 17.6225 11.7192 17.5068 11.5503 17.4251C11.3815 17.3434 11.1975 17.2975 11.0101 17.2903C10.8226 17.283 10.6357 17.3146 10.461 17.383C10.2864 17.4515 10.1277 17.5553 9.9951 17.6879C9.86245 17.8206 9.75865 17.9792 9.69022 18.1539C9.6218 18.3285 9.59021 18.5154 9.59745 18.7029C9.60469 18.8903 9.6506 19.0743 9.7323 19.2431C9.814 19.412 9.92972 19.5622 10.0722 19.6842L24.5 34.1256Z" fill="white"/>
</g>
<defs>
<clipPath id="clip0">
<rect width="49" height="39" fill="white"/>
</clipPath>
</defs>
</svg>
