<?xml version="1.0" encoding="utf-8"?>
<!-- Generator: Adobe Illustrator 24.2.0, SVG Export Plug-In . SVG Version: 6.00 Build 0)  -->
<svg version="1.1" id="Слой_1" xmlns="http://www.w3.org/2000/svg" xmlns:xlink="http://www.w3.org/1999/xlink" x="0px" y="0px"
	 viewBox="0 0 100 100" style="enable-background:new 0 0 100 100;" xml:space="preserve">
<path d="M88,86h-4.5V24.5c0-0.8-0.7-1.5-1.5-1.5H68c-0.8,0-1.5,0.7-1.5,1.5V86h-8V47.5c0-0.8-0.7-1.5-1.5-1.5H43
	c-0.8,0-1.5,0.7-1.5,1.5V86h-8V69.5c0-0.8-0.7-1.5-1.5-1.5l0,0H18c-0.8,0-1.5,0.7-1.5,1.5l0,0V86H12c-0.8,0-1.5,0.7-1.5,1.5
	S11.2,89,12,89h76c0.8,0,1.5-0.7,1.5-1.5S88.8,86,88,86z M69.5,26h11v60h-11V26z M44.5,49h11v37h-11V49z M19.5,71h11v15h-11V71z"/>
<path d="M13,58c0.4,0,0.8-0.2,1.1-0.4l41.4-41.4v6.4c0,0.8,0.7,1.5,1.5,1.5s1.5-0.7,1.5-1.5v-10c0-0.2,0-0.4-0.1-0.6l0,0
	c-0.2-0.4-0.4-0.7-0.8-0.8l0,0C57.4,11,57.2,11,57,11H47c-0.8,0-1.5,0.7-1.5,1.5S46.2,14,47,14h6.4L11.9,55.4
	c-0.6,0.6-0.6,1.5,0,2.1C12.2,57.8,12.6,58,13,58z"/>
</svg>
