<svg viewBox="0 0 27 21" fill="none" xmlns="http://www.w3.org/2000/svg">
<path d="M25.65 0H0.95C0.424531 0 0 0.426562 0 0.954545V20.0455C0 20.5734 0.424531 21 0.95 21H25.65C26.1755 21 26.6 20.5734 26.6 20.0455V0.954545C26.6 0.426562 26.1755 0 25.65 0ZM24.4625 3.30511V18.8523H2.1375V3.30511L1.31813 2.66378L2.48484 1.15739L3.75547 2.15071H22.8475L24.1181 1.15739L25.2848 2.66378L24.4625 3.30511ZM22.8475 2.14773L13.3 9.60511L3.7525 2.14773L2.48188 1.1544L1.31516 2.6608L2.13453 3.30213L12.2758 11.2249C12.5674 11.4525 12.9262 11.5761 13.2955 11.5761C13.6649 11.5761 14.0237 11.4525 14.3153 11.2249L24.4625 3.30511L25.2819 2.66378L24.1152 1.15739L22.8475 2.14773Z" fill="#878787"/>
</svg>
