<svg width="23" height="30" viewBox="0 0 23 30" fill="none" xmlns="http://www.w3.org/2000/svg">
<path d="M22.6929 7.52009L15.6622 0.314732C15.4662 0.113839 15.2016 0 14.9239 0H1.04545C0.467187 0 0 0.478794 0 1.07143V28.9286C0 29.5212 0.467187 30 1.04545 30H21.9545C22.5328 30 23 29.5212 23 28.9286V8.28013C23 7.99554 22.8889 7.72098 22.6929 7.52009ZM20.5889 8.77232H14.4403V2.47098L20.5889 8.77232ZM20.6477 27.5893H2.35227V2.41071H12.2187V9.64286C12.2187 10.0158 12.3633 10.3735 12.6206 10.6372C12.878 10.9009 13.227 11.0491 13.5909 11.0491H20.6477V27.5893Z" fill="#878787"/>
<path d="M5.64337 20H6.60144V18.5308H7.40684C8.44899 18.5308 9.05525 17.9091 9.05525 17.0041C9.05525 16.1036 8.46005 15.4685 7.43118 15.4685H5.64337V20ZM6.60144 17.763V16.2518H7.24753C7.80069 16.2518 8.06841 16.5527 8.06841 17.0041C8.06841 17.4533 7.80069 17.763 7.25195 17.763H6.60144Z" fill="#878787"/>
<path d="M11.2839 20C12.6646 20 13.501 19.1459 13.501 17.7298C13.501 16.3182 12.6646 15.4685 11.2972 15.4685H9.67755V20H11.2839ZM10.6356 19.1791V16.2894H11.2463C12.096 16.2894 12.5451 16.7231 12.5451 17.7298C12.5451 18.741 12.096 19.1791 11.2441 19.1791H10.6356Z" fill="#878787"/>
<path d="M14.2107 20H15.1687V18.1281H17.0119V17.3382H15.1687V16.2584H17.211V15.4685H14.2107V20Z" fill="#878787"/>
</svg>
