<svg viewBox="0 0 22 30" fill="none" xmlns="http://www.w3.org/2000/svg">
        <path d="M21.323 21.4251L16.2418 16.8051C16.0016 16.5867 15.686 16.4703 15.3615 16.4803C15.0371 16.4904 14.7293 16.6261 14.503 16.8588L11.5118 19.9351C10.7918 19.7976 9.34428 19.3463 7.85428 17.8601C6.36428 16.3688 5.91303 14.9176 5.77928 14.2026L8.85303 11.2101C9.08605 10.984 9.22195 10.6761 9.23198 10.3516C9.24201 10.027 9.12539 9.71136 8.90678 9.4713L4.28803 4.3913C4.06933 4.1505 3.76538 4.00443 3.44072 3.98413C3.11606 3.96382 2.79628 4.07088 2.54928 4.28255L-0.163219 6.6088C-0.37933 6.8257 -0.50832 7.11437 -0.525719 7.42005C-0.544469 7.73255 -0.901969 15.1351 4.83803 20.8776C9.84553 25.8838 16.118 26.2501 17.8455 26.2501C18.098 26.2501 18.253 26.2426 18.2943 26.2401C18.5999 26.2229 18.8884 26.0934 19.1043 25.8763L21.4293 23.1626C21.6418 22.9163 21.7496 22.5968 21.7298 22.2722C21.7099 21.9475 21.564 21.6435 21.323 21.4251Z"
              fill="#878787"/>
</svg>
