<svg viewBox="0 0 234 234" fill="none" xmlns="http://www.w3.org/2000/svg">
<path d="M208.246 117.726L207.505 129.005L210.415 129.196L210.924 121.446L214.909 121.707L214.44 128.847L217.35 129.038L217.819 121.898L221.796 122.16L221.289 129.878L224.198 130.069L224.937 118.822L208.246 117.726Z" fill="#0D0D0D"/>
<path d="M206.262 133.955C205.88 135.769 206.424 137.11 207.44 137.951L207.42 138.046L205.718 137.688L205.038 140.917L213.318 142.661C216.243 143.277 217.996 141.058 218.571 138.325C219.191 135.384 218.191 133.153 216.053 132.21L215.134 135.306C215.9 135.709 216.347 136.563 216.089 137.785C215.845 138.944 215.122 139.485 214.115 139.273L214.067 139.263C213.276 139.096 213.348 138.235 213.59 136.057C213.878 133.58 213.522 131.227 210.781 130.649C208.351 130.138 206.755 131.613 206.262 133.955ZM208.406 135.425C208.627 134.378 209.273 133.729 210.208 133.926C211.167 134.128 211.472 135.018 211.387 136.253C211.334 137.018 211.254 138.27 211.44 138.734L210.138 138.46C208.851 138.189 208.092 136.919 208.406 135.425Z" fill="#0D0D0D"/>
<path d="M209.402 155.656C211.682 156.143 213.656 154.872 214.725 151.888C215.807 148.867 215.121 146.374 212.842 145.566C211.076 144.925 209.531 145.63 208.244 147.771L207.104 149.671C206.527 150.627 205.982 150.961 205.385 150.764C204.69 150.498 204.463 149.558 204.874 148.412C205.292 147.243 206.07 146.646 207.103 146.79L208.088 143.508C205.717 143.006 203.637 144.429 202.516 147.559C201.42 150.619 202.196 153.37 204.523 154.212C206.232 154.816 207.654 154.067 208.944 151.944L210.14 149.96C210.773 148.946 211.295 148.673 211.862 148.885C212.572 149.131 212.747 150.096 212.383 151.111C211.976 152.249 211.11 152.702 210.291 152.591L209.402 155.656Z" fill="#0D0D0D"/>
<path d="M195.148 153.824C193.956 156.123 194.5 157.95 195.971 159.513L206.054 170.232L207.764 166.969L200.791 160.401L200.851 160.285L210.226 162.219L211.91 158.971L198.382 157.027L198.004 156.602C197.171 155.654 197.522 154.852 198.419 153.937L196.474 152.046C196.057 152.391 195.554 153.041 195.148 153.824Z" fill="#0D0D0D"/>
<path d="M196.85 181.102L194.704 183.985C197.63 185.593 201.239 184.644 203.497 181.61C206.135 178.066 205.613 173.431 201.263 170.193C197.017 167.033 192.481 167.628 189.667 171.409C187.146 174.796 187.489 178.808 191.021 181.437L192.711 182.695L196.89 177.08L194.754 175.49L192.609 178.373C190.974 177.095 190.763 175.176 192.167 173.29C193.752 171.16 196.344 171.002 199.148 173.089C201.939 175.167 202.479 177.738 200.953 179.788C199.866 181.249 198.376 181.678 196.85 181.102Z" fill="#0D0D0D"/>
<path d="M181.472 180.905C180.147 182.202 179.855 183.619 180.233 184.882L180.163 184.951L178.947 183.707L176.588 186.015L182.506 192.063C184.597 194.2 187.286 193.328 189.283 191.375C191.431 189.273 191.838 186.863 190.583 184.891L188.101 186.955C188.514 187.716 188.411 188.674 187.518 189.548C186.671 190.376 185.77 190.424 185.05 189.688L185.016 189.653C184.45 189.075 184.989 188.4 186.399 186.723C188.014 184.823 189.025 182.668 187.066 180.665C185.329 178.891 183.183 179.231 181.472 180.905ZM182.44 183.318C183.204 182.57 184.102 182.389 184.77 183.072C185.455 183.773 185.214 184.683 184.459 185.662C183.99 186.269 183.228 187.266 183.125 187.756L182.194 186.804C181.274 185.864 181.348 184.386 182.44 183.318Z" fill="#0D0D0D"/>
<path d="M172.03 200.687C173.66 202.356 176.007 202.39 178.549 200.498C181.124 198.582 181.933 196.126 180.483 194.192C179.368 192.68 177.692 192.411 175.433 193.481L173.432 194.43C172.422 194.907 171.784 194.883 171.395 194.389C170.965 193.783 171.296 192.874 172.272 192.147C173.268 191.406 174.247 191.34 175.027 192.032L177.665 189.844C175.969 188.113 173.448 188.146 170.782 190.131C168.174 192.072 167.297 194.792 168.768 196.782C169.857 198.232 171.456 198.396 173.706 197.342L175.8 196.354C176.888 195.859 177.474 195.922 177.829 196.412C178.284 197.01 177.895 197.91 177.03 198.554C176.061 199.275 175.089 199.174 174.469 198.628L172.03 200.687Z" fill="#0D0D0D"/>
<path d="M160.243 196.856C157.526 198.355 156.425 200.688 157.12 202.963L160.04 201.595C159.886 200.588 160.432 199.718 161.448 199.158C162.971 198.318 164.493 198.793 165.396 200.431L165.4 200.438L157.919 204.565L158.381 205.402C160.44 209.135 163.718 209.733 166.622 208.131C169.854 206.348 170.683 202.897 168.813 199.507C166.892 196.024 163.626 194.99 160.243 196.856ZM166.442 202.326C167.068 203.613 166.669 205.139 165.317 205.885C163.994 206.615 162.558 206.176 161.829 204.871L166.442 202.326Z" fill="#0D0D0D"/>
<path d="M149.601 202.293L146.221 203.334L147.966 209.001L145.499 209.761L140.726 205.026L136.994 206.175L142.303 211.343C140.725 212.684 140.206 214.579 140.879 216.764C141.857 219.941 144.587 221.34 148.216 220.222L154.524 218.28L149.601 202.293ZM148.803 211.718L150.293 216.557L148.013 217.259C146.062 217.86 144.851 217.285 144.36 215.692C143.872 214.108 144.572 213.021 146.508 212.424L148.803 211.718Z" fill="#0D0D0D"/>
<path d="M130.121 206.948C127.052 207.412 125.211 209.219 125.074 211.594L128.288 211.323C128.492 210.325 129.306 209.698 130.453 209.525C132.173 209.264 133.435 210.238 133.715 212.087L133.717 212.096L125.269 213.374L125.412 214.319C126.05 218.534 128.917 220.232 132.196 219.735C135.846 219.183 137.82 216.233 137.241 212.405C136.646 208.472 133.941 206.37 130.121 206.948ZM134.039 214.228C134.18 215.652 133.277 216.945 131.751 217.176C130.257 217.402 129.062 216.492 128.83 215.016L134.039 214.228Z" fill="#0D0D0D"/>
<path d="M119.319 207.922C117.465 207.944 116.274 208.766 115.675 209.941L115.577 209.942L115.557 208.203L112.257 208.241L112.355 216.702C112.39 219.691 114.936 220.92 117.729 220.887C120.735 220.852 122.694 219.392 123.15 217.1L119.929 216.876C119.702 217.711 118.966 218.333 117.716 218.347C116.532 218.361 115.847 217.772 115.835 216.743L115.835 216.694C115.825 215.886 116.682 215.77 118.86 215.532C121.34 215.275 123.56 214.416 123.527 211.614C123.499 209.132 121.712 207.895 119.319 207.922ZM118.35 210.335C119.42 210.322 120.194 210.812 120.205 211.767C120.216 212.747 119.413 213.239 118.19 213.424C117.432 213.539 116.192 213.733 115.779 214.016L115.764 212.685C115.748 211.37 116.823 210.353 118.35 210.335Z" fill="#0D0D0D"/>
<path d="M104.38 224.256L107.846 224.565L109.328 207.903L105.862 207.595L104.38 224.256Z" fill="#0D0D0D"/>
<path d="M98.6229 206.548L87.6688 203.757L86.949 206.583L94.4759 208.5L93.4899 212.371L86.5566 210.604L85.8367 213.43L92.7701 215.196L91.7861 219.059L84.2908 217.149L83.5709 219.975L94.4934 222.757L98.6229 206.548Z" fill="#0D0D0D"/>
<path d="M73.6513 207.705C73.0704 209.964 74.2591 211.988 77.196 213.179C80.1706 214.385 82.6896 213.802 83.5904 211.559C84.3038 209.821 83.6636 208.248 81.577 206.873L79.7262 205.656C78.7948 205.04 78.4835 204.482 78.7046 203.893C78.999 203.21 79.9479 203.022 81.0757 203.48C82.2262 203.946 82.7912 204.748 82.6044 205.774L85.8434 206.893C86.4428 204.545 85.106 202.408 82.0254 201.159C79.0129 199.937 76.2327 200.599 75.2952 202.89C74.6215 204.573 75.3109 206.025 77.3793 207.401L79.3116 208.678C80.2989 209.352 80.5497 209.885 80.315 210.442C80.0402 211.142 79.0689 211.277 78.0698 210.872C76.9496 210.417 76.5321 209.534 76.6769 208.72L73.6513 207.705Z" fill="#0D0D0D"/>
<path d="M63.7875 206.419L65.8627 207.544L64.4303 210.187L67.4893 211.845L68.9216 209.202L70.4295 210.02L71.675 207.722L70.1671 206.904L73.2808 201.16C74.4667 199.006 73.5746 197.139 71.3052 196.029C70.4998 195.63 69.8541 195.484 69.4908 195.417L68.7381 197.954C68.9045 198.007 69.2665 198.111 69.5537 198.266C70.1641 198.597 70.4632 199.057 70.0039 199.904L67.1081 205.246L65.033 204.121L63.7875 206.419Z" fill="#0D0D0D"/>
<path d="M65.5427 192.345C64.0236 191.282 62.5763 191.256 61.4048 191.862L61.3245 191.806L62.322 190.38L59.6186 188.488L54.7669 195.421C53.0528 197.87 54.4061 200.352 56.6946 201.954C59.1571 203.678 61.6008 203.633 63.3068 202.036L60.8202 199.976C60.1484 200.523 59.1883 200.599 58.1644 199.882C57.1941 199.203 56.9806 198.326 57.5707 197.483L57.5988 197.443C58.0624 196.78 58.8259 197.185 60.7343 198.262C62.8997 199.498 65.2042 200.094 66.8105 197.798C68.2342 195.764 67.5033 193.717 65.5427 192.345ZM63.3494 193.741C64.2261 194.355 64.5694 195.203 64.0215 195.986C63.4595 196.789 62.5207 196.72 61.4186 196.158C60.7354 195.81 59.6153 195.245 59.1148 195.234L59.8781 194.143C60.6321 193.066 62.0981 192.866 63.3494 193.741Z" fill="#0D0D0D"/>
<path d="M44.7335 191.997L46.4968 193.567L44.4986 195.812L47.0977 198.125L49.0959 195.88L50.3772 197.02L52.1148 195.068L50.8335 193.927L55.1775 189.046C56.8241 187.221 56.3825 185.199 54.4266 183.6C53.7337 183.027 53.1384 182.738 52.8 182.59L51.4875 184.888C51.6373 184.977 51.9662 185.161 52.2102 185.378C52.7288 185.839 52.915 186.355 52.2743 187.075L48.2344 191.614L46.4711 190.045L44.7335 191.997Z" fill="#0D0D0D"/>
<path d="M48.3737 177.274C46.3019 174.963 43.781 174.415 41.7207 175.604L43.7107 178.142C44.6567 177.765 45.6274 178.102 46.4016 178.965C47.5629 180.261 47.4415 181.85 46.0488 183.099L46.0427 183.104L40.3398 176.743L39.6283 177.381C36.4537 180.227 36.6076 183.555 38.8212 186.024C41.2855 188.773 44.8352 188.805 47.7178 186.221C50.6794 183.566 50.9525 180.151 48.3737 177.274ZM44.4372 184.544C43.3239 185.443 41.7474 185.398 40.7169 184.248C39.7083 183.123 39.8131 181.625 40.9206 180.621L44.4372 184.544Z" fill="#0D0D0D"/>
<path d="M38.5376 164C37.8039 162.726 36.6185 161.486 35.1026 160.785L35.6676 159.508L33.8577 156.366L32.3843 159.552C30.7379 159.18 28.777 159.311 26.6118 160.133L28.0507 162.632C29.0888 162.241 30.143 162.124 31.1473 162.215L29.5211 165.725L28.3591 165.131C26.6876 164.275 25.0841 164.011 23.5846 164.582C21.5428 165.324 20.6634 167.414 22.0086 169.75C23.3782 172.128 26.0548 173.028 28.3566 172.164C29.767 171.634 30.583 170.58 31.2102 169.427C33.304 170.559 35.0295 171.214 36.876 170.509C39.371 169.571 40.2701 167.008 38.5376 164ZM34.0559 163.141C34.8112 163.602 35.42 164.184 35.795 164.835C36.5247 166.102 36.1375 167.23 35.0145 167.67C34.4094 167.895 33.4941 167.763 32.3972 167.216L32.2764 167.154L34.0559 163.141ZM28.4626 167.88C28.0206 168.7 27.5892 169.326 26.9387 169.587C26.1343 169.909 25.1373 169.569 24.6604 168.741C24.1631 167.878 24.5375 167.153 25.1608 166.926C25.8276 166.693 26.5696 166.803 27.4862 167.33L28.4626 167.88Z" fill="#878787"/>
<path d="M16.9796 144.534L15.9577 141.303C12.9253 141.79 11.6035 144.41 12.7264 147.961C13.8321 151.458 16.6618 153.715 19.7217 153.287C22.1918 152.917 23.0781 151.061 22.9196 148.284L22.8287 146.48C22.7042 144.677 22.9428 143.617 24.0688 143.466C25.2882 143.286 26.4794 144.263 27.0261 145.992C27.5802 147.744 27.1323 149.145 25.4817 149.478L26.5135 152.741C30.1029 152.146 31.2074 149.381 29.9885 145.526C28.7547 141.625 26.0759 139.628 23.0005 140.061C20.2045 140.456 19.3589 142.686 19.5781 145.546L19.6689 147.025C19.776 148.447 19.5937 149.713 18.3853 149.846C17.2954 150.003 16.2227 149.211 15.7006 147.56C15.1909 145.948 15.6619 144.891 16.9796 144.534Z" fill="#878787"/>
<path d="M26.6297 131.983C26.1393 128.902 24.2837 126.857 21.8449 126.343L22.1346 129.515C23.1593 129.872 23.8054 130.762 23.9877 131.907C24.2676 133.666 23.4557 134.697 21.4537 134.693L21.3624 134.691L20.0194 126.254L19.0513 126.251C14.7291 126.219 12.9973 128.744 13.5198 132.027C14.1002 135.673 17.1336 138.052 21.0583 138.08C25.0918 138.117 27.237 135.798 26.6297 131.983ZM19.1713 134.643C17.7619 134.569 16.375 133.442 16.14 131.966C15.9038 130.482 16.8363 129.481 18.3509 129.488L19.1713 134.643Z" fill="#878787"/>
<path d="M25.3904 119.251C25.3259 115.911 23.3195 113.54 20.4242 112.934L20.4875 116.217C21.8269 116.624 22.6056 117.606 22.6289 118.814C22.6603 120.439 21.3125 121.29 18.9039 120.937C16.5285 120.607 15.1479 119.334 15.1164 117.701C15.0921 116.444 15.9283 115.749 17.1698 115.742L17.1066 112.467C14.2011 112.18 12.3345 114.087 12.3977 117.362C12.4711 121.167 15.163 123.925 19.0212 124.472C22.8472 125.043 25.4649 123.114 25.3904 119.251Z" fill="#878787"/>
<path d="M20.8333 102.057C22.4699 102.532 23.1866 103.921 23.0329 105.161C22.8701 106.474 21.8688 107.05 20.4308 106.633L13.2703 104.511L12.8423 107.964L20.6048 110.276C23.4565 111.106 25.4054 109.924 25.7158 107.42C25.9479 105.547 25.1742 103.888 23.8107 102.937L23.8267 102.807L26.042 103.46L26.4529 100.145L14.2599 96.5267L13.8319 99.9797L20.8333 102.057Z" fill="#878787"/>
<path d="M26.7088 98.9988L27.5421 95.6207L20.9307 92.7868C19.4985 92.1475 18.7786 90.6323 19.1425 89.1574C19.2618 88.6736 19.4956 88.0667 19.6711 87.7988L16.7908 86.5499C16.6471 86.8257 16.5077 87.2203 16.4236 87.5613C16.0871 88.9253 16.571 90.3738 17.9056 91.4433L17.8743 91.5702L15.8371 90.6891L15.0292 93.9641L26.7088 98.9988Z" fill="#878787"/>
<path d="M29.1474 89.6247L30.2589 86.3276L19.0386 80.3388L17.9271 83.6359L29.1474 89.6247ZM17.0471 81.1328C17.3784 80.1498 16.9174 79.0118 16.0406 78.5956C15.1535 78.1845 14.1704 78.6461 13.8391 79.6291C13.5104 80.6043 13.9534 81.7448 14.8379 82.1636C15.712 82.5876 16.7157 82.1157 17.0471 81.1328Z" fill="#878787"/>
<path d="M22.5357 71.952L21.613 74.1334L19.0388 72.5037L17.6834 75.7083L20.2576 77.338L19.5926 78.9102L21.828 80.3345L22.4961 78.7548L28.0941 82.2932C30.179 83.6539 31.8725 82.7739 32.7781 80.3812C33.1056 79.5442 33.1978 78.8649 33.2377 78.4561L30.8022 77.5679C30.7623 77.7461 30.6911 78.1239 30.5639 78.4248C30.2934 79.0642 29.8777 79.3761 29.0537 78.8503L23.8516 75.5503L24.7742 73.3688L22.5357 71.952Z" fill="#878787"/>
<path d="M34.077 77.0615L35.6668 73.9666L25.4628 66.3745L23.873 69.4695L34.077 77.0615ZM23.3753 66.8633C23.8493 65.9406 23.5627 64.7466 22.7577 64.2045C21.9416 63.666 20.9008 63.9761 20.4269 64.8988C19.9567 65.8142 20.225 67.008 21.0373 67.5538C21.8386 68.1031 22.9014 67.7859 23.3753 66.8633Z" fill="#878787"/>
<path d="M39.3773 68.0478C41.0715 65.4278 41.0577 62.6664 39.5864 60.6548L37.6829 63.2075C38.2059 64.1585 38.0921 65.2521 37.4624 66.226C36.4955 67.7212 35.2028 67.9454 33.716 66.6047L33.6494 66.5422L38.2884 59.368L37.5702 58.7188C34.3758 55.8071 31.4 56.5284 29.5949 59.3199C27.5903 62.42 28.2575 66.2167 31.1581 68.8607C34.1346 71.5829 37.2796 71.292 39.3773 68.0478ZM32.0516 65.0421C31.0521 64.0457 30.7737 62.2803 31.5853 61.0251C32.4013 59.7631 33.7634 59.6421 34.8855 60.6595L32.0516 65.0421Z" fill="#878787"/>
<path d="M44.0168 47.0025C42.3157 45.4354 40.13 45.7879 38.0134 48.2551C35.9819 50.6231 35.5581 53.2621 37.082 55.0859C38.3508 56.6049 40.0056 56.6579 41.919 55.1678L43.6089 53.8627C44.4792 53.1996 44.9603 53.128 45.341 53.5623C45.8811 54.1871 45.7052 55.3706 44.8463 56.334C44.085 57.209 43.2415 57.3893 42.4294 56.7679L40.3534 59.4637C42.1148 61.0609 44.4467 60.6509 46.6643 58.0659C48.7384 55.6483 49.1862 52.7179 47.6234 50.8391C46.3882 49.3813 44.8228 49.4373 42.9131 50.8982L41.13 52.2741C40.2155 52.9638 39.7583 52.9698 39.4192 52.5497C38.8791 51.9249 39.0984 50.7787 39.8483 49.9046C40.5928 49.0368 41.4495 49.0292 42.1075 49.5291L44.0168 47.0025Z" fill="#878787"/>
<path d="M49.3795 31.8009L46.6787 34.0841L55.3568 48.6513L58.0577 46.3681L49.3795 31.8009Z" fill="#878787"/>
<path d="M59.7101 35.9332C59.0377 34.4364 59.437 33.0257 60.6093 32.2368C61.7748 31.4525 62.8412 31.8376 63.4884 33.2528L66.5782 40.0536L69.4649 38.111L66.1166 30.7361C64.8862 28.0298 62.7017 27.3438 60.5401 28.7984C58.9884 29.8426 58.2409 31.4383 58.4044 33.1004L58.2892 33.1779L57.3516 31.1409L54.6072 32.9877L59.8765 44.5633L62.7564 42.6253L59.7101 35.9332Z" fill="#878787"/>
<path d="M72.975 22.1065L70.868 23.1888L69.9379 20.2875L66.8429 21.8773L67.7731 24.7785L66.2546 25.5585L67.0565 28.0849L68.5822 27.3012L70.6087 33.606C71.3359 35.987 73.1997 36.3978 75.4289 35.1426C76.2169 34.7103 76.7233 34.2481 77.016 33.96L75.7168 31.7167C75.5719 31.8278 75.275 32.0722 74.9844 32.2214C74.3669 32.5386 73.8479 32.5114 73.5528 31.5795L71.6772 25.7114L73.7841 24.6292L72.975 22.1065Z" fill="#878787"/>
<path d="M83.4324 31.6376C86.3535 30.5415 87.9868 28.3148 88.0026 25.8226L84.9533 26.74C84.8072 27.8155 84.0646 28.6262 82.9787 29.0337C81.3117 29.6592 80.1396 29.0696 79.7434 27.1071L79.7272 27.0173L87.7259 24.016L87.5355 23.0667C86.703 18.8254 83.8827 17.6329 80.7704 18.8007C77.314 20.0977 75.5891 23.5451 76.3451 27.3965C77.1154 31.3559 79.8153 32.9948 83.4324 31.6376ZM79.3367 24.8607C79.1271 23.4651 79.9546 21.8809 81.354 21.3558C82.7611 20.8279 83.9275 21.5418 84.2232 23.0272L79.3367 24.8607Z" fill="#878787"/>
<path d="M90.3625 28.8743L93.7438 28.0538L93.2052 20.8809C93.111 19.3153 94.1227 17.9772 95.599 17.619C96.0832 17.5015 96.7295 17.4287 97.0482 17.4606L96.8263 14.3292C96.5153 14.329 96.1008 14.3875 95.7595 14.4703C94.3943 14.8016 93.3328 15.8996 93.0003 17.5772L92.8733 17.608L92.7143 15.3942L89.4362 16.1896L90.3625 28.8743Z" fill="#878787"/>
<path d="M103.097 18.819C103.193 17.1809 104.199 16.1146 105.603 15.9569C106.999 15.8002 107.767 16.6346 107.686 18.1888L107.283 25.6475L110.74 25.2594L111.18 17.1719C111.34 14.2034 109.72 12.5853 107.131 12.8759C105.272 13.0846 103.872 14.1541 103.249 15.7034L103.111 15.7189L103.221 13.4792L99.9336 13.8482L99.2552 26.5486L102.705 26.1614L103.097 18.819Z" fill="#878787"/>
<path d="M116.723 25.3681C118.576 25.4325 119.942 24.6709 120.783 23.5314L120.881 23.5348L120.527 25.2633L123.824 25.3779L125.53 16.9704C126.124 13.9999 123.841 12.662 121.066 12.5655C118.054 12.4609 115.775 13.8201 114.847 16.0761L118.005 16.4474C118.41 15.6278 119.321 15.0465 120.561 15.0897C121.737 15.1305 122.271 15.7457 122.072 16.7685L122.07 16.8175C121.896 17.6123 121.002 17.6875 118.799 17.8316C116.269 17.9725 113.88 18.7313 113.31 21.5065C112.816 23.9656 114.339 25.2853 116.723 25.3681ZM118.202 23.0168C117.116 22.979 116.473 22.45 116.652 21.5082C116.842 20.5341 117.764 20.084 119.027 19.9562C119.791 19.8602 121.078 19.7414 121.537 19.4795L121.278 20.8027C121.004 22.1089 119.728 23.0698 118.202 23.0168Z" fill="#878787"/>
<path d="M136.661 14.4737L134.319 14.1193L135.262 11.222L131.821 10.7014L130.879 13.5987L129.191 13.3433L128.364 15.8615L130.06 16.1182L128.016 22.4174C127.214 24.7741 128.485 26.1973 131.028 26.4829C131.92 26.5931 132.601 26.5145 133.007 26.452L133.265 23.8724C133.082 23.8779 132.699 23.9024 132.375 23.8535C131.689 23.7496 131.284 23.424 131.59 22.4955L133.5 16.6388L135.842 16.9932L136.661 14.4737Z" fill="#878787"/>
<path d="M134.914 26.9803L138.305 27.7621L143.161 16.0072L139.77 15.2254L134.914 26.9803ZM142.175 14.1035C143.186 14.3366 144.273 13.7658 144.601 12.8524C144.923 11.9292 144.367 10.9963 143.356 10.7632C142.353 10.532 141.262 11.085 140.932 12.0064C140.596 12.918 141.164 13.8704 142.175 14.1035Z" fill="#878787"/>
<path d="M144.971 29.914C148.562 31.1245 152.01 29.5632 153.833 26.1264C155.683 22.6303 154.681 19.5172 151.059 18.2962C147.46 17.0831 144.015 18.6366 142.195 22.0915C140.339 25.5772 141.341 28.6904 144.971 29.914ZM146.165 27.472C144.539 26.9242 144.465 25.227 145.487 23.2959C146.534 21.3132 148.207 20.1359 149.878 20.6994C151.504 21.2473 151.568 22.9496 150.551 24.8911C149.496 26.8711 147.829 28.033 146.165 27.472Z" fill="#878787"/>
<path d="M159.177 27.5153C160.158 26.2 161.585 25.8632 162.844 26.5042C164.096 27.1414 164.278 28.2604 163.356 29.514L158.915 35.5202L162.016 37.0985L166.833 30.5873C168.6 28.1964 168.137 25.954 165.815 24.7721C164.148 23.9237 162.391 24.0462 161.018 24.9971L160.894 24.9341L162.218 23.1245L159.27 21.624L151.716 31.8561L154.81 33.4307L159.177 27.5153Z" fill="#878787"/>
<path d="M167.047 40.5536C168.558 41.6278 170.119 41.7447 171.448 41.2565L171.527 41.3132L170.28 42.5609L172.969 44.4726L179.023 38.3943C181.155 36.2417 179.986 33.8678 177.723 32.259C175.266 30.5129 172.616 30.3928 170.599 31.7647L173.03 33.8137C173.819 33.3523 174.9 33.3688 175.912 34.0881C176.87 34.7695 176.977 35.5772 176.248 36.3214L176.22 36.3613C175.636 36.9286 174.849 36.4993 172.93 35.4062C170.741 34.1304 168.329 33.4486 166.325 35.4509C164.558 37.2315 165.103 39.1719 167.047 40.5536ZM169.577 39.4055C168.691 38.7762 168.445 37.9802 169.114 37.2931C169.808 36.5841 170.827 36.7166 171.951 37.3055C172.641 37.6457 173.781 38.2555 174.308 38.2894L173.364 39.2515C172.415 40.1908 170.822 40.2904 169.577 39.4055Z" fill="#878787"/>
<path d="M190.483 37.4972L187.859 35.2125L174.781 46.0049L177.405 48.2896L190.483 37.4972Z" fill="#878787"/>
<path d="M182.836 53.2169L185.099 55.9343L191.14 52.3905L195.494 57.6182L198.049 56.1286L193.694 50.9009L197.175 48.852L202 54.6445L204.554 53.1549L197.466 44.645L182.836 53.2169Z" fill="#878787"/>
<path d="M200.261 67.7895C198.69 68.448 197.259 67.817 196.6 66.7553C195.902 65.6312 196.32 64.5546 197.701 63.976L204.606 61.1307L202.771 58.1747L195.278 61.2503C192.537 62.3946 191.763 64.5385 193.094 66.6826C194.089 68.2855 195.734 69.0912 197.392 68.9749L197.461 69.0859L195.327 69.9688L197.089 72.8068L208.85 67.9655L207.015 65.0095L200.261 67.7895Z" fill="#878787"/>
<path d="M206.272 75.171C207.865 74.7789 209.181 75.4257 209.746 76.7208C210.308 78.0085 209.737 78.9881 208.228 79.37L200.983 81.1852L202.374 84.3744L210.231 82.4083C213.115 81.6851 214.183 79.6598 213.141 77.2716C212.393 75.5573 210.958 74.5348 209.293 74.3965L209.238 74.2692L211.41 73.7136L210.088 70.6816L197.753 73.7813L199.141 76.963L206.272 75.171Z" fill="#878787"/>
<path d="M204.315 91.1155C204.828 93.0667 206.273 93.9704 207.452 94.3445L207.49 94.4867L205.461 94.6736L206.333 97.9913L223.217 96.4245L222.333 93.0594L215.984 93.6472L215.957 93.5445C216.872 93.0084 217.877 91.9166 217.344 89.8865C216.642 87.2166 213.891 85.1696 209.54 85.5787C205.303 85.9746 203.584 88.335 204.315 91.1155ZM207.381 91.8888C206.945 90.2299 208.25 89.2197 210.461 89.0187C212.651 88.806 214.385 89.524 214.823 91.1908C215.253 92.8259 214.058 93.9002 211.8 94.1137C209.542 94.3272 207.807 93.5081 207.381 91.8888Z" fill="#878787"/>
</svg>
