<svg width="886" height="425" viewBox="0 0 886 425" fill="none" xmlns="http://www.w3.org/2000/svg">
<g filter="url(#filter0_d)">
<rect width="854" height="393" transform="translate(15 15)" fill="white"/>
<line x1="117.857" y1="324.5" x2="808" y2="324.5" stroke="#0D0D0D"/>
<line x1="723.646" y1="325" x2="723.646" y2="331" stroke="#0D0D0D"/>
<path d="M691.452 343.364H690.279V351H691.452V347.739H695.111V351H696.284V343.364H695.111V346.645H691.452V343.364ZM701.529 351.159C703.598 351.159 704.99 349.588 704.99 347.222C704.99 344.835 703.598 343.264 701.529 343.264C699.461 343.264 698.069 344.835 698.069 347.222C698.069 349.588 699.461 351.159 701.529 351.159ZM701.529 350.105C699.958 350.105 699.243 348.753 699.243 347.222C699.243 345.69 699.958 344.318 701.529 344.318C703.1 344.318 703.816 345.69 703.816 347.222C703.816 348.753 703.1 350.105 701.529 350.105ZM711.374 351H712.488V343.364H709.346C707.7 343.364 706.701 344.224 706.701 345.631C706.701 346.68 707.228 347.425 708.148 347.739L706.284 351H707.556L709.326 347.898H711.374V351ZM711.374 346.804H709.207C708.377 346.804 707.874 346.362 707.874 345.631C707.874 344.89 708.431 344.438 709.346 344.438H711.374V346.804ZM720.31 340.5C719.937 340.813 719.38 340.813 718.599 340.808C718.346 340.808 718.067 340.808 717.764 340.818C715.437 340.878 714.284 342.648 714.284 346.048V346.864C714.284 349.688 715.656 351.159 717.705 351.159C719.748 351.159 721.105 349.678 721.105 347.281C721.105 344.875 719.728 343.602 717.943 343.602C716.894 343.602 715.915 344.04 715.398 344.994H715.298C715.457 343.026 716.193 341.972 717.784 341.912C719.196 341.852 720.21 341.892 720.906 341.216L720.31 340.5ZM717.705 350.105C716.312 350.105 715.457 348.991 715.457 347.281C715.482 345.611 716.322 344.656 717.685 344.656C719.082 344.656 719.932 345.611 719.932 347.281C719.932 349.001 719.087 350.105 717.705 350.105ZM722.9 353.864H724.073V349.827H724.173C724.431 350.244 724.928 351.159 726.4 351.159C728.309 351.159 729.641 349.628 729.641 347.202C729.641 344.795 728.309 343.264 726.38 343.264C724.888 343.264 724.431 344.179 724.173 344.577H724.033V343.364H722.9V353.864ZM724.053 347.182C724.053 345.472 724.809 344.318 726.241 344.318C727.732 344.318 728.468 345.571 728.468 347.182C728.468 348.812 727.712 350.105 726.241 350.105C724.829 350.105 724.053 348.912 724.053 347.182ZM732.604 346.128V343.364H731.431V351H734.633C736.423 351 737.397 349.906 737.397 348.534C737.397 347.142 736.423 346.128 734.633 346.128H732.604ZM732.604 347.222H734.633C735.562 347.222 736.224 347.788 736.224 348.594C736.224 349.364 735.562 349.906 734.633 349.906H732.604V347.222Z" fill="#878787"/>
<line x1="546.868" y1="325" x2="546.868" y2="331" stroke="#0D0D0D"/>
<path d="M510.946 351.159C513.014 351.159 514.406 349.588 514.406 347.222C514.406 344.835 513.014 343.264 510.946 343.264C508.877 343.264 507.485 344.835 507.485 347.222C507.485 349.588 508.877 351.159 510.946 351.159ZM510.946 350.105C509.375 350.105 508.659 348.753 508.659 347.222C508.659 345.69 509.375 344.318 510.946 344.318C512.517 344.318 513.233 345.69 513.233 347.222C513.233 348.753 512.517 350.105 510.946 350.105ZM516.197 351H517.37V347.778H518.424L520.93 351H522.441L519.319 347.043L522.401 343.364H520.89L518.146 346.685H517.37V343.364H516.197V351ZM523.279 344.457H525.804V351H526.978V344.457H529.483V343.364H523.279V344.457ZM535.789 351H536.902V343.364H533.76C532.115 343.364 531.115 344.224 531.115 345.631C531.115 346.68 531.642 347.425 532.562 347.739L530.698 351H531.97L533.74 347.898H535.789V351ZM535.789 346.804H533.621C532.791 346.804 532.289 346.362 532.289 345.631C532.289 344.89 532.845 344.438 533.76 344.438H535.789V346.804ZM544.724 340.5C544.351 340.813 543.794 340.813 543.014 340.808C542.76 340.808 542.482 340.808 542.178 340.818C539.852 340.878 538.698 342.648 538.698 346.048V346.864C538.698 349.688 540.07 351.159 542.119 351.159C544.162 351.159 545.519 349.678 545.519 347.281C545.519 344.875 544.142 343.602 542.357 343.602C541.308 343.602 540.329 344.04 539.812 344.994H539.713C539.872 343.026 540.607 341.972 542.198 341.912C543.61 341.852 544.624 341.892 545.32 341.216L544.724 340.5ZM542.119 350.105C540.727 350.105 539.872 348.991 539.872 347.281C539.896 345.611 540.737 344.656 542.099 344.656C543.496 344.656 544.346 345.611 544.346 347.281C544.346 349.001 543.501 350.105 542.119 350.105ZM547.314 353.864H548.487V349.827H548.587C548.845 350.244 549.342 351.159 550.814 351.159C552.723 351.159 554.056 349.628 554.056 347.202C554.056 344.795 552.723 343.264 550.794 343.264C549.303 343.264 548.845 344.179 548.587 344.577H548.448V343.364H547.314V353.864ZM548.467 347.182C548.467 345.472 549.223 344.318 550.655 344.318C552.146 344.318 552.882 345.571 552.882 347.182C552.882 348.812 552.127 350.105 550.655 350.105C549.243 350.105 548.467 348.912 548.467 347.182ZM557.019 346.128V343.364H555.845V351H559.047C560.837 351 561.811 349.906 561.811 348.534C561.811 347.142 560.837 346.128 559.047 346.128H557.019ZM557.019 347.222H559.047C559.977 347.222 560.638 347.788 560.638 348.594C560.638 349.364 559.977 349.906 559.047 349.906H557.019V347.222Z" fill="#878787"/>
<line x1="371.504" y1="325" x2="371.504" y2="331" stroke="#0D0D0D"/>
<path d="M329.925 351.159C331.615 351.159 332.729 350.125 332.927 348.773H331.754C331.535 349.608 330.839 350.105 329.925 350.105C328.533 350.105 327.638 348.952 327.638 347.182C327.638 345.452 328.552 344.318 329.925 344.318C330.959 344.318 331.575 344.955 331.754 345.651H332.927C332.729 344.219 331.515 343.264 329.905 343.264C327.836 343.264 326.464 344.895 326.464 347.222C326.464 349.509 327.777 351.159 329.925 351.159ZM337.844 351.159C339.395 351.159 340.529 350.384 340.887 349.23L339.753 348.912C339.455 349.707 338.764 350.105 337.844 350.105C336.467 350.105 335.518 349.215 335.463 347.58H341.006V347.082C341.006 344.239 339.316 343.264 337.725 343.264C335.657 343.264 334.285 344.895 334.285 347.241C334.285 349.588 335.637 351.159 337.844 351.159ZM335.463 346.565C335.542 345.377 336.383 344.318 337.725 344.318C338.998 344.318 339.813 345.273 339.813 346.565H335.463ZM343.964 343.364H342.791V351H343.964V347.739H347.623V351H348.797V343.364H347.623V346.645H343.964V343.364ZM349.9 344.457H352.426V351H353.599V344.457H356.105V343.364H349.9V344.457ZM362.41 351H363.524V343.364H360.382C358.736 343.364 357.737 344.224 357.737 345.631C357.737 346.68 358.264 347.425 359.184 347.739L357.319 351H358.592L360.362 347.898H362.41V351ZM362.41 346.804H360.243C359.412 346.804 358.91 346.362 358.91 345.631C358.91 344.89 359.467 344.438 360.382 344.438H362.41V346.804ZM371.345 340.5C370.972 340.813 370.416 340.813 369.635 340.808C369.382 340.808 369.103 340.808 368.8 340.818C366.473 340.878 365.32 342.648 365.32 346.048V346.864C365.32 349.688 366.692 351.159 368.74 351.159C370.784 351.159 372.141 349.678 372.141 347.281C372.141 344.875 370.764 343.602 368.979 343.602C367.93 343.602 366.95 344.04 366.433 344.994H366.334C366.493 343.026 367.229 341.972 368.82 341.912C370.232 341.852 371.246 341.892 371.942 341.216L371.345 340.5ZM368.74 350.105C367.348 350.105 366.493 348.991 366.493 347.281C366.518 345.611 367.358 344.656 368.72 344.656C370.117 344.656 370.968 345.611 370.968 347.281C370.968 349.001 370.122 350.105 368.74 350.105ZM373.936 353.864H375.109V349.827H375.208C375.467 350.244 375.964 351.159 377.436 351.159C379.345 351.159 380.677 349.628 380.677 347.202C380.677 344.795 379.345 343.264 377.416 343.264C375.924 343.264 375.467 344.179 375.208 344.577H375.069V343.364H373.936V353.864ZM375.089 347.182C375.089 345.472 375.845 344.318 377.276 344.318C378.768 344.318 379.504 345.571 379.504 347.182C379.504 348.812 378.748 350.105 377.276 350.105C375.865 350.105 375.089 348.912 375.089 347.182ZM383.64 346.128V343.364H382.467V351H385.669C387.458 351 388.433 349.906 388.433 348.534C388.433 347.142 387.458 346.128 385.669 346.128H383.64ZM383.64 347.222H385.669C386.598 347.222 387.259 347.788 387.259 348.594C387.259 349.364 386.598 349.906 385.669 349.906H383.64V347.222Z" fill="#878787"/>
<line x1="196.139" y1="325" x2="196.139" y2="331" stroke="#0D0D0D"/>
<path d="M167.848 351.179C169.18 351.179 169.876 350.463 170.115 349.966H170.174V351H171.348V345.969C171.348 343.543 169.498 343.264 168.524 343.264C167.37 343.264 166.058 343.662 165.461 345.054L166.575 345.452C166.833 344.895 167.445 344.298 168.563 344.298C169.642 344.298 170.174 344.87 170.174 345.849V345.889C170.174 346.456 169.598 346.406 168.205 346.585C166.789 346.769 165.242 347.082 165.242 348.832C165.242 350.324 166.396 351.179 167.848 351.179ZM168.026 350.125C167.092 350.125 166.416 349.707 166.416 348.892C166.416 347.997 167.231 347.719 168.146 347.599C168.643 347.54 169.975 347.401 170.174 347.162V348.236C170.174 349.19 169.419 350.125 168.026 350.125ZM173.489 351H177.088C178.64 351 179.574 350.125 179.574 348.952C179.574 347.754 178.664 347.107 177.824 346.983C178.684 346.804 179.296 346.322 179.296 345.392C179.296 344.174 178.252 343.364 176.611 343.364H173.489V351ZM174.603 349.926V347.58H177.088C177.894 347.58 178.381 348.062 178.381 348.852C178.381 349.518 177.894 349.926 177.088 349.926H174.603ZM174.603 346.565V344.438H176.611C177.551 344.438 178.123 344.83 178.123 345.472C178.123 346.153 177.551 346.565 176.611 346.565H174.603ZM186.063 343.364H181.35V351H182.524V344.457H186.063V343.364ZM188.532 353.864C189.591 353.864 190.337 353.302 190.779 352.114L194.03 343.384L192.748 343.364L190.64 349.449H190.56L188.452 343.364H187.18L190.003 351.04L189.785 351.636C189.357 352.8 188.83 352.909 187.975 352.69L187.677 353.724C187.796 353.784 188.134 353.864 188.532 353.864ZM198.412 351.159C200.102 351.159 201.216 350.125 201.414 348.773H200.241C200.022 349.608 199.326 350.105 198.412 350.105C197.02 350.105 196.125 348.952 196.125 347.182C196.125 345.452 197.039 344.318 198.412 344.318C199.446 344.318 200.062 344.955 200.241 345.651H201.414C201.216 344.219 200.003 343.264 198.392 343.264C196.324 343.264 194.951 344.895 194.951 347.222C194.951 349.509 196.264 351.159 198.412 351.159ZM202.528 344.457H205.054V351H206.227V344.457H208.733V343.364H202.528V344.457Z" fill="#878787"/>
<path d="M65.375 328.139C67.6222 328.139 68.9148 326.235 68.9148 322.909C68.9148 319.608 67.6023 317.679 65.375 317.679C63.1477 317.679 61.8352 319.608 61.8352 322.909C61.8352 326.235 63.1278 328.139 65.375 328.139ZM65.375 327.045C63.8935 327.045 63.0284 325.559 63.0284 322.909C63.0284 320.264 63.9034 318.753 65.375 318.753C66.8466 318.753 67.7216 320.264 67.7216 322.909C67.7216 325.559 66.8565 327.045 65.375 327.045ZM75.9943 326.091C75.9943 327.205 76.6903 328.139 77.983 328.139C79.2557 328.139 79.9517 327.205 79.9517 326.091V325.554C79.9517 324.44 79.2756 323.506 77.983 323.506C76.7102 323.506 75.9943 324.44 75.9943 325.554V326.091ZM70.9233 320.264C70.9233 321.378 71.6193 322.312 72.9119 322.312C74.1847 322.312 74.8807 321.378 74.8807 320.264V319.727C74.8807 318.614 74.2045 317.679 72.9119 317.679C71.6392 317.679 70.9233 318.614 70.9233 319.727V320.264ZM71.3011 328H72.4347L79.4347 317.818H78.3011L71.3011 328ZM77.0085 325.554C77.0085 324.938 77.2869 324.361 77.983 324.361C78.6989 324.361 78.9375 324.938 78.9375 325.554V326.091C78.9375 326.707 78.679 327.284 77.983 327.284C77.267 327.284 77.0085 326.707 77.0085 326.091V325.554ZM71.9375 319.727C71.9375 319.111 72.2159 318.534 72.9119 318.534C73.6278 318.534 73.8665 319.111 73.8665 319.727V320.264C73.8665 320.881 73.608 321.457 72.9119 321.457C72.196 321.457 71.9375 320.881 71.9375 320.264V319.727Z" fill="#878787"/>
<line x1="120.317" y1="244.5" x2="808" y2="244.5" stroke="#DDDDDD"/>
<path d="M65.2358 248.139C67.1747 248.139 68.5966 246.707 68.5966 244.759C68.5966 242.785 67.2244 241.338 65.3551 241.338C64.669 241.338 64.0028 241.582 63.5852 241.915H63.5256L63.8835 238.912H68.1392V237.818H62.8494L62.233 242.83L63.3864 242.969C63.8089 242.665 64.5298 242.447 65.1562 242.452C66.4538 242.462 67.4034 243.446 67.4034 244.778C67.4034 246.086 66.4886 247.045 65.2358 247.045C64.1918 247.045 63.3615 246.374 63.267 245.455H62.0739C62.1484 247.006 63.4858 248.139 65.2358 248.139ZM75.7619 246.091C75.7619 247.205 76.4579 248.139 77.7505 248.139C79.0233 248.139 79.7193 247.205 79.7193 246.091V245.554C79.7193 244.44 79.0431 243.506 77.7505 243.506C76.4778 243.506 75.7619 244.44 75.7619 245.554V246.091ZM70.6909 240.264C70.6909 241.378 71.3869 242.312 72.6795 242.312C73.9522 242.312 74.6483 241.378 74.6483 240.264V239.727C74.6483 238.614 73.9721 237.679 72.6795 237.679C71.4068 237.679 70.6909 238.614 70.6909 239.727V240.264ZM71.0687 248H72.2022L79.2022 237.818H78.0687L71.0687 248ZM76.7761 245.554C76.7761 244.938 77.0545 244.361 77.7505 244.361C78.4664 244.361 78.7051 244.938 78.7051 245.554V246.091C78.7051 246.707 78.4466 247.284 77.7505 247.284C77.0346 247.284 76.7761 246.707 76.7761 246.091V245.554ZM71.7051 239.727C71.7051 239.111 71.9835 238.534 72.6795 238.534C73.3954 238.534 73.6341 239.111 73.6341 239.727V240.264C73.6341 240.881 73.3755 241.457 72.6795 241.457C71.9636 241.457 71.7051 240.881 71.7051 240.264V239.727Z" fill="#878787"/>
<line x1="120.317" y1="164.5" x2="808" y2="164.5" stroke="#DDDDDD"/>
<path d="M65.6335 157.818H64.4006L61.8551 159.509V160.761L64.3409 159.111H64.4006V168H65.6335V157.818ZM71.8828 168.139C74.13 168.139 75.4226 166.235 75.4226 162.909C75.4226 159.608 74.1101 157.679 71.8828 157.679C69.6555 157.679 68.343 159.608 68.343 162.909C68.343 166.235 69.6357 168.139 71.8828 168.139ZM71.8828 167.045C70.4013 167.045 69.5362 165.559 69.5362 162.909C69.5362 160.264 70.4112 158.753 71.8828 158.753C73.3544 158.753 74.2294 160.264 74.2294 162.909C74.2294 165.559 73.3643 167.045 71.8828 167.045ZM82.5021 166.091C82.5021 167.205 83.1982 168.139 84.4908 168.139C85.7635 168.139 86.4595 167.205 86.4595 166.091V165.554C86.4595 164.44 85.7834 163.506 84.4908 163.506C83.218 163.506 82.5021 164.44 82.5021 165.554V166.091ZM77.4311 160.264C77.4311 161.378 78.1271 162.312 79.4197 162.312C80.6925 162.312 81.3885 161.378 81.3885 160.264V159.727C81.3885 158.614 80.7124 157.679 79.4197 157.679C78.147 157.679 77.4311 158.614 77.4311 159.727V160.264ZM77.8089 168H78.9425L85.9425 157.818H84.8089L77.8089 168ZM83.5163 165.554C83.5163 164.938 83.7947 164.361 84.4908 164.361C85.2067 164.361 85.4453 164.938 85.4453 165.554V166.091C85.4453 166.707 85.1868 167.284 84.4908 167.284C83.7749 167.284 83.5163 166.707 83.5163 166.091V165.554ZM78.4453 159.727C78.4453 159.111 78.7237 158.534 79.4197 158.534C80.1357 158.534 80.3743 159.111 80.3743 159.727V160.264C80.3743 160.881 80.1158 161.457 79.4197 161.457C78.7038 161.457 78.4453 160.881 78.4453 160.264V159.727Z" fill="#878787"/>
<line x1="120.317" y1="84.5" x2="808" y2="84.5" stroke="#DDDDDD"/>
<path d="M65.6335 77.8182H64.4006L61.8551 79.5085V80.7614L64.3409 79.1108H64.4006V88H65.6335V77.8182ZM71.7436 88.1392C73.6825 88.1392 75.1044 86.7074 75.1044 84.7585C75.1044 82.7848 73.7322 81.3381 71.8629 81.3381C71.1768 81.3381 70.5107 81.5817 70.093 81.9148H70.0334L70.3913 78.9119H74.647V77.8182H69.3572L68.7408 82.8295L69.8942 82.9688C70.3168 82.6655 71.0376 82.4467 71.6641 82.4517C72.9616 82.4616 73.9112 83.446 73.9112 84.7784C73.9112 86.0859 72.9964 87.0455 71.7436 87.0455C70.6996 87.0455 69.8693 86.3743 69.7749 85.4545H68.5817C68.6562 87.0057 69.9936 88.1392 71.7436 88.1392ZM82.2697 86.0909C82.2697 87.2045 82.9657 88.1392 84.2583 88.1392C85.5311 88.1392 86.2271 87.2045 86.2271 86.0909V85.554C86.2271 84.4403 85.551 83.5057 84.2583 83.5057C82.9856 83.5057 82.2697 84.4403 82.2697 85.554V86.0909ZM77.1987 80.2642C77.1987 81.3778 77.8947 82.3125 79.1873 82.3125C80.46 82.3125 81.1561 81.3778 81.1561 80.2642V79.7273C81.1561 78.6136 80.4799 77.679 79.1873 77.679C77.9146 77.679 77.1987 78.6136 77.1987 79.7273V80.2642ZM77.5765 88H78.71L85.71 77.8182H84.5765L77.5765 88ZM83.2839 85.554C83.2839 84.9375 83.5623 84.3608 84.2583 84.3608C84.9743 84.3608 85.2129 84.9375 85.2129 85.554V86.0909C85.2129 86.7074 84.9544 87.2841 84.2583 87.2841C83.5424 87.2841 83.2839 86.7074 83.2839 86.0909V85.554ZM78.2129 79.7273C78.2129 79.1108 78.4913 78.5341 79.1873 78.5341C79.9032 78.5341 80.1419 79.1108 80.1419 79.7273V80.2642C80.1419 80.8807 79.8833 81.4574 79.1873 81.4574C78.4714 81.4574 78.2129 80.8807 78.2129 80.2642V79.7273Z" fill="#878787"/>
<path d="M137.98 304L208.407 244.305L377.592 227.752L548.147 186.119L718.017 149" stroke="#878787" stroke-width="2"/>
<circle cx="138" cy="305" r="6" fill="#FA5255"/>
<circle cx="204.774" cy="245" r="6" fill="#FA5255"/>
<circle cx="375.197" cy="229" r="6" fill="#FA5255"/>
<circle cx="545.621" cy="186" r="6" fill="#FA5255"/>
<circle cx="717.04" cy="149" r="6" fill="#FA5255"/>
<path d="M734 171.86C734.064 174.519 733.137 177.106 731.4 179.12C731.179 179.3 731.036 179.558 731 179.84V182H719.14V180.52C719.14 180.356 719.1 180.195 719.024 180.05C718.947 179.905 718.836 179.782 718.7 179.69C717.951 179.076 717.332 178.317 716.88 177.46C716.243 176.381 715.835 175.183 715.68 173.94C715.669 173.724 715.589 173.517 715.45 173.35L710.53 167.53C710.37 167.372 710.243 167.183 710.156 166.976C710.069 166.768 710.024 166.545 710.024 166.32C710.024 166.095 710.069 165.872 710.156 165.664C710.243 165.456 710.37 165.268 710.53 165.11C710.859 164.786 711.303 164.604 711.765 164.604C712.227 164.604 712.671 164.786 713 165.11L716 168.11V171.25L718 170.25V155.28C718.036 154.914 718.212 154.576 718.492 154.337C718.771 154.098 719.133 153.978 719.5 154C719.867 153.978 720.229 154.098 720.508 154.337C720.788 154.576 720.964 154.914 721 155.28V167.08L723 167.51V162.59C723.839 162.607 724.677 162.667 725.51 162.77V168L727.11 168.35V163C727.52 163.08 727.94 163.17 728.37 163.28C728.889 163.416 729.399 163.579 729.9 163.77V168.92L731.5 169.27V164.5C732.409 164.959 733.25 165.541 734 166.23V171.86Z" fill="white"/>
<path fill-rule="evenodd" clip-rule="evenodd" d="M735.74 165.19C733.875 163.267 731.486 161.935 728.87 161.36C726.949 160.877 724.98 160.616 723 160.58V155.28C722.969 154.382 722.583 153.532 721.927 152.918C721.271 152.303 720.399 151.973 719.5 152C718.602 151.973 717.729 152.303 717.073 152.918C716.417 153.532 716.031 154.382 716 155.28V165.28L714.4 163.7C713.695 163.009 712.747 162.621 711.76 162.621C710.773 162.621 709.825 163.009 709.12 163.7C708.767 164.041 708.486 164.45 708.293 164.901C708.101 165.353 708.001 165.839 708 166.33C707.982 167.282 708.341 168.202 709 168.89L713.66 174.41C713.885 175.82 714.37 177.177 715.09 178.41C715.616 179.358 716.292 180.216 717.09 180.95V182.87C717.087 183.144 717.189 183.408 717.375 183.609C717.561 183.81 717.817 183.932 718.09 183.95H732C732.273 183.932 732.529 183.81 732.715 183.609C732.901 183.408 733.003 183.144 733 182.87V180.17C734.965 177.83 736.029 174.865 736 171.81V165.81C735.988 165.579 735.896 165.36 735.74 165.19ZM731.4 179.12C733.137 177.106 734.064 174.519 734 171.86V166.23C733.25 165.541 732.409 164.959 731.5 164.5V169.27L729.9 168.92V163.77C729.399 163.579 728.889 163.416 728.37 163.28C727.94 163.17 727.52 163.08 727.11 163V168.35L725.51 168V162.77C724.677 162.667 723.839 162.607 723 162.59V167.51L721 167.08V155.28C720.964 154.914 720.788 154.576 720.508 154.337C720.229 154.098 719.867 153.978 719.5 154C719.133 153.978 718.771 154.098 718.492 154.337C718.212 154.576 718.036 154.914 718 155.28V170.25L716 171.25V168.11L713 165.11C712.671 164.786 712.227 164.604 711.765 164.604C711.303 164.604 710.859 164.786 710.53 165.11C710.37 165.268 710.243 165.456 710.156 165.664C710.069 165.872 710.024 166.095 710.024 166.32C710.024 166.545 710.069 166.768 710.156 166.976C710.243 167.183 710.37 167.372 710.53 167.53L715.45 173.35C715.589 173.517 715.669 173.724 715.68 173.94C715.835 175.183 716.243 176.381 716.88 177.46C717.332 178.317 717.951 179.076 718.7 179.69C718.836 179.782 718.947 179.905 719.024 180.05C719.1 180.195 719.14 180.356 719.14 180.52V182H731V179.84C731.036 179.558 731.179 179.3 731.4 179.12Z" fill="white"/>
<path d="M735.74 165.19C733.875 163.267 731.486 161.935 728.87 161.36C726.949 160.877 724.98 160.616 723 160.58V155.28C722.969 154.382 722.583 153.532 721.927 152.918C721.271 152.303 720.398 151.973 719.5 152C718.602 151.973 717.729 152.303 717.073 152.918C716.417 153.532 716.031 154.382 716 155.28V165.28L714.4 163.7C713.695 163.009 712.747 162.621 711.76 162.621C710.773 162.621 709.825 163.009 709.12 163.7C708.767 164.041 708.486 164.45 708.293 164.901C708.101 165.353 708.001 165.839 708 166.33C707.982 167.282 708.341 168.202 709 168.89L713.66 174.41C713.885 175.82 714.37 177.177 715.09 178.41C715.616 179.358 716.292 180.216 717.09 180.95V182.87C717.087 183.144 717.189 183.408 717.375 183.609C717.561 183.81 717.817 183.932 718.09 183.95H732C732.273 183.932 732.529 183.81 732.715 183.609C732.901 183.408 733.003 183.144 733 182.87V180.17C734.965 177.83 736.029 174.865 736 171.81V165.81C735.987 165.58 735.896 165.36 735.74 165.19ZM734 171.86C734.064 174.519 733.137 177.106 731.4 179.12C731.179 179.3 731.036 179.558 731 179.84V182H719.14V180.52C719.14 180.356 719.1 180.195 719.024 180.05C718.947 179.905 718.836 179.782 718.7 179.69C717.951 179.076 717.332 178.317 716.88 177.46C716.243 176.381 715.835 175.183 715.68 173.94C715.669 173.724 715.589 173.517 715.45 173.35L710.53 167.53C710.37 167.372 710.243 167.183 710.156 166.976C710.069 166.768 710.024 166.545 710.024 166.32C710.024 166.095 710.069 165.872 710.156 165.664C710.243 165.457 710.37 165.268 710.53 165.11C710.859 164.786 711.303 164.604 711.765 164.604C712.227 164.604 712.671 164.786 713 165.11L716 168.11V171.25L718 170.25V155.28C718.036 154.914 718.212 154.576 718.492 154.337C718.771 154.098 719.133 153.978 719.5 154C719.867 153.978 720.229 154.098 720.508 154.337C720.788 154.576 720.964 154.914 721 155.28V167.08L723 167.51V162.59C723.839 162.607 724.677 162.667 725.51 162.77V168L727.11 168.35V163C727.52 163.08 727.94 163.17 728.37 163.28C728.888 163.416 729.399 163.579 729.9 163.77V168.92L731.5 169.27V164.5C732.409 164.959 733.25 165.541 734 166.23V171.86Z" fill="#0D0D0D"/>
<g filter="url(#filter1_d)">
<path d="M671 99C671 96.2386 673.239 94 676 94H758C760.761 94 763 96.2386 763 99V126.938C763 129.662 760.82 131.884 758.097 131.937L729.298 132.497C727.919 132.524 726.612 133.12 725.687 134.143L719.587 140.888C718.516 142.072 716.706 142.21 715.468 141.202L706.157 133.625C705.293 132.922 704.218 132.527 703.104 132.504L675.897 131.943C673.176 131.887 671 129.665 671 126.944V99Z" fill="white"/>
</g>
<path d="M693.17 107.909H691.585L688.312 110.082V111.693L691.508 109.571H691.585V121H693.17V107.909ZM701.205 121.179C704.094 121.179 705.756 118.731 705.756 114.455C705.756 110.21 704.069 107.73 701.205 107.73C698.341 107.73 696.654 110.21 696.654 114.455C696.654 118.731 698.316 121.179 701.205 121.179ZM701.205 119.773C699.3 119.773 698.188 117.862 698.188 114.455C698.188 111.054 699.313 109.111 701.205 109.111C703.097 109.111 704.222 111.054 704.222 114.455C704.222 117.862 703.11 119.773 701.205 119.773ZM710.004 119.21H708.367L708.291 119.926C708.105 121.658 707.741 123.384 707.575 124.196H708.725C709.032 123.327 709.684 121.358 709.901 119.901L710.004 119.21ZM716.586 121.179C719.475 121.179 721.137 118.731 721.137 114.455C721.137 110.21 719.45 107.73 716.586 107.73C713.722 107.73 712.035 110.21 712.035 114.455C712.035 118.731 713.697 121.179 716.586 121.179ZM716.586 119.773C714.681 119.773 713.569 117.862 713.569 114.455C713.569 111.054 714.694 109.111 716.586 109.111C718.478 109.111 719.603 111.054 719.603 114.455C719.603 117.862 718.491 119.773 716.586 119.773ZM727.657 121.179C730.15 121.179 731.978 119.338 731.978 116.832C731.978 114.295 730.214 112.435 727.81 112.435C726.928 112.435 726.072 112.748 725.535 113.176H725.458L725.918 109.315H731.39V107.909H724.589L723.796 114.352L725.279 114.531C725.822 114.141 726.749 113.86 727.555 113.866C729.223 113.879 730.444 115.145 730.444 116.858C730.444 118.539 729.268 119.773 727.657 119.773C726.315 119.773 725.247 118.91 725.126 117.727H723.592C723.688 119.722 725.407 121.179 727.657 121.179ZM741.191 118.545C741.191 119.977 742.085 121.179 743.747 121.179C745.384 121.179 746.279 119.977 746.279 118.545V117.855C746.279 116.423 745.409 115.222 743.747 115.222C742.111 115.222 741.191 116.423 741.191 117.855V118.545ZM734.671 111.054C734.671 112.486 735.566 113.688 737.227 113.688C738.864 113.688 739.759 112.486 739.759 111.054V110.364C739.759 108.932 738.889 107.73 737.227 107.73C735.591 107.73 734.671 108.932 734.671 110.364V111.054ZM735.156 121H736.614L745.614 107.909H744.156L735.156 121ZM742.494 117.855C742.494 117.062 742.852 116.321 743.747 116.321C744.668 116.321 744.975 117.062 744.975 117.855V118.545C744.975 119.338 744.642 120.08 743.747 120.08C742.827 120.08 742.494 119.338 742.494 118.545V117.855ZM735.975 110.364C735.975 109.571 736.333 108.83 737.227 108.83C738.148 108.83 738.455 109.571 738.455 110.364V111.054C738.455 111.847 738.122 112.588 737.227 112.588C736.307 112.588 735.975 111.847 735.975 111.054V110.364Z" fill="#FA5255"/>
</g>
<defs>
<filter id="filter0_d" x="0" y="0" width="886" height="425" filterUnits="userSpaceOnUse" color-interpolation-filters="sRGB">
<feFlood flood-opacity="0" result="BackgroundImageFix"/>
<feColorMatrix in="SourceAlpha" type="matrix" values="0 0 0 0 0 0 0 0 0 0 0 0 0 0 0 0 0 0 127 0"/>
<feMorphology radius="1" operator="dilate" in="SourceAlpha" result="effect1_dropShadow"/>
<feOffset dx="1" dy="1"/>
<feGaussianBlur stdDeviation="7.5"/>
<feColorMatrix type="matrix" values="0 0 0 0 0 0 0 0 0 0 0 0 0 0 0 0 0 0 0.05 0"/>
<feBlend mode="normal" in2="BackgroundImageFix" result="effect1_dropShadow"/>
<feBlend mode="normal" in="SourceGraphic" in2="effect1_dropShadow" result="shape"/>
</filter>
<filter id="filter1_d" x="656" y="79" width="124" height="79.8758" filterUnits="userSpaceOnUse" color-interpolation-filters="sRGB">
<feFlood flood-opacity="0" result="BackgroundImageFix"/>
<feColorMatrix in="SourceAlpha" type="matrix" values="0 0 0 0 0 0 0 0 0 0 0 0 0 0 0 0 0 0 127 0"/>
<feMorphology radius="1" operator="dilate" in="SourceAlpha" result="effect1_dropShadow"/>
<feOffset dx="1" dy="1"/>
<feGaussianBlur stdDeviation="7.5"/>
<feColorMatrix type="matrix" values="0 0 0 0 0 0 0 0 0 0 0 0 0 0 0 0 0 0 0.05 0"/>
<feBlend mode="normal" in2="BackgroundImageFix" result="effect1_dropShadow"/>
<feBlend mode="normal" in="SourceGraphic" in2="effect1_dropShadow" result="shape"/>
</filter>
</defs>
</svg>
