<svg width="809" height="351" viewBox="0 0 809 351" fill="none" xmlns="http://www.w3.org/2000/svg">
<rect width="809" height="351" fill="#0D0D0D"/>
<line x1="66.8569" y1="282" x2="757" y2="282" stroke="white" stroke-width="2"/>
<path d="M567 283V296" stroke="white" stroke-width="2"/>
<path d="M536.054 314H542.477V312.906H537.744V312.827L540.031 310.381C541.781 308.506 542.298 307.631 542.298 306.503C542.298 304.932 541.026 303.679 539.236 303.679C537.451 303.679 536.094 304.892 536.094 306.682H537.267C537.267 305.523 538.018 304.753 539.196 304.753C540.3 304.753 541.145 305.429 541.145 306.503C541.145 307.442 540.593 308.138 539.415 309.426L536.054 313.105V314ZM547.852 314.139C550.099 314.139 551.391 312.235 551.391 308.909C551.391 305.608 550.079 303.679 547.852 303.679C545.624 303.679 544.312 305.608 544.312 308.909C544.312 312.235 545.604 314.139 547.852 314.139ZM547.852 313.045C546.37 313.045 545.505 311.559 545.505 308.909C545.505 306.264 546.38 304.753 547.852 304.753C549.323 304.753 550.198 306.264 550.198 308.909C550.198 311.559 549.333 313.045 547.852 313.045ZM553.281 314H559.704V312.906H554.971V312.827L557.258 310.381C559.008 308.506 559.525 307.631 559.525 306.503C559.525 304.932 558.252 303.679 556.462 303.679C554.678 303.679 553.32 304.892 553.32 306.682H554.494C554.494 305.523 555.244 304.753 556.423 304.753C557.526 304.753 558.371 305.429 558.371 306.503C558.371 307.442 557.82 308.138 556.641 309.426L553.281 313.105V314ZM565.078 314.139C567.325 314.139 568.618 312.235 568.618 308.909C568.618 305.608 567.305 303.679 565.078 303.679C562.851 303.679 561.538 305.608 561.538 308.909C561.538 312.235 562.831 314.139 565.078 314.139ZM565.078 313.045C563.597 313.045 562.732 311.559 562.732 308.909C562.732 306.264 563.607 304.753 565.078 304.753C566.55 304.753 567.425 306.264 567.425 308.909C567.425 311.559 566.56 313.045 565.078 313.045ZM579.178 306.364H574.464V314H575.638V307.457H579.178V306.364ZM583.596 314.159C585.664 314.159 587.056 312.588 587.056 310.222C587.056 307.835 585.664 306.264 583.596 306.264C581.528 306.264 580.136 307.835 580.136 310.222C580.136 312.588 581.528 314.159 583.596 314.159ZM583.596 313.105C582.025 313.105 581.309 311.753 581.309 310.222C581.309 308.69 582.025 307.318 583.596 307.318C585.167 307.318 585.883 308.69 585.883 310.222C585.883 311.753 585.167 313.105 583.596 313.105ZM588.032 316.188H589.205V314H594.853V316.188H596.026V312.906H594.853V306.364H590.001L589.742 309.386C589.558 311.524 589.285 312.26 588.668 312.906H588.032V316.188ZM590.001 312.906C590.538 312.2 590.732 310.982 590.896 309.386L591.094 307.457H593.68V312.906H590.001Z" fill="white"/>
<line x1="68" y1="104.5" x2="755.683" y2="104.5" stroke="#DDDDDD" stroke-opacity="0.15"/>
<line x1="69" y1="169.5" x2="756.683" y2="169.5" stroke="#DDDDDD" stroke-opacity="0.15"/>
<line x1="69" y1="225.5" x2="756.683" y2="225.5" stroke="#DDDDDD" stroke-opacity="0.15"/>
<path d="M32.5932 175.139C34.5321 175.139 35.954 173.707 35.954 171.759C35.954 169.785 34.5819 168.338 32.7125 168.338C32.0265 168.338 31.3603 168.582 30.9426 168.915H30.883L31.2409 165.912H35.4966V164.818H30.2069L29.5904 169.83L30.7438 169.969C31.1664 169.665 31.8873 169.447 32.5137 169.452C33.8113 169.462 34.7608 170.446 34.7608 171.778C34.7608 173.086 33.8461 174.045 32.5932 174.045C31.5492 174.045 30.7189 173.374 30.6245 172.455H29.4313C29.5059 174.006 30.8432 175.139 32.5932 175.139ZM41.25 175.139C43.4972 175.139 44.7898 173.235 44.7898 169.909C44.7898 166.608 43.4773 164.679 41.25 164.679C39.0227 164.679 37.7102 166.608 37.7102 169.909C37.7102 173.235 39.0028 175.139 41.25 175.139ZM41.25 174.045C39.7685 174.045 38.9034 172.559 38.9034 169.909C38.9034 167.264 39.7784 165.753 41.25 165.753C42.7216 165.753 43.5966 167.264 43.5966 169.909C43.5966 172.559 42.7315 174.045 41.25 174.045ZM51.8693 173.091C51.8693 174.205 52.5653 175.139 53.858 175.139C55.1307 175.139 55.8267 174.205 55.8267 173.091V172.554C55.8267 171.44 55.1506 170.506 53.858 170.506C52.5852 170.506 51.8693 171.44 51.8693 172.554V173.091ZM46.7983 167.264C46.7983 168.378 47.4943 169.312 48.7869 169.312C50.0597 169.312 50.7557 168.378 50.7557 167.264V166.727C50.7557 165.614 50.0795 164.679 48.7869 164.679C47.5142 164.679 46.7983 165.614 46.7983 166.727V167.264ZM47.1761 175H48.3097L55.3097 164.818H54.1761L47.1761 175ZM52.8835 172.554C52.8835 171.938 53.1619 171.361 53.858 171.361C54.5739 171.361 54.8125 171.938 54.8125 172.554V173.091C54.8125 173.707 54.554 174.284 53.858 174.284C53.142 174.284 52.8835 173.707 52.8835 173.091V172.554ZM47.8125 166.727C47.8125 166.111 48.0909 165.534 48.7869 165.534C49.5028 165.534 49.7415 166.111 49.7415 166.727V167.264C49.7415 167.881 49.483 168.457 48.7869 168.457C48.071 168.457 47.8125 167.881 47.8125 167.264V166.727Z" fill="white"/>
<line x1="69.3166" y1="42.5" x2="757" y2="42.5" stroke="#DDDDDD" stroke-opacity="0.15"/>
<path d="M51.536 46.0909C51.536 47.2045 52.232 48.1392 53.5246 48.1392C54.7973 48.1392 55.4934 47.2045 55.4934 46.0909V45.554C55.4934 44.4403 54.8172 43.5057 53.5246 43.5057C52.2519 43.5057 51.536 44.4403 51.536 45.554V46.0909ZM46.465 40.2642C46.465 41.3778 47.161 42.3125 48.4536 42.3125C49.7263 42.3125 50.4223 41.3778 50.4223 40.2642V39.7273C50.4223 38.6136 49.7462 37.679 48.4536 37.679C47.1809 37.679 46.465 38.6136 46.465 39.7273V40.2642ZM46.8428 48H47.9763L54.9763 37.8182H53.8428L46.8428 48ZM52.5502 45.554C52.5502 44.9375 52.8286 44.3608 53.5246 44.3608C54.2405 44.3608 54.4792 44.9375 54.4792 45.554V46.0909C54.4792 46.7074 54.2206 47.2841 53.5246 47.2841C52.8087 47.2841 52.5502 46.7074 52.5502 46.0909V45.554ZM47.4792 39.7273C47.4792 39.1108 47.7576 38.5341 48.4536 38.5341C49.1695 38.5341 49.4081 39.1108 49.4081 39.7273V40.2642C49.4081 40.8807 49.1496 41.4574 48.4536 41.4574C47.7377 41.4574 47.4792 40.8807 47.4792 40.2642V39.7273Z" fill="white"/>
<line x1="86.7306" y1="262.037" x2="565.731" y2="128.037" stroke="#E40155" stroke-width="2"/>
<circle cx="87" cy="263" r="5" fill="#B8B8B8" stroke="#E40155" stroke-width="2"/>
<circle cx="566" cy="129" r="5" fill="#B8B8B8" stroke="#E40155" stroke-width="2"/>
</svg>
