<svg width="1440" height="717" viewBox="0 0 1440 717" fill="none" xmlns="http://www.w3.org/2000/svg">
<path style="mix-blend-mode:screen" opacity="0.7" d="M1590.54 539.02C1514.16 542.353 1456.61 622.342 1421.08 690.999L1412.71 707.288C1374.87 781.153 1335.56 857.559 1264.31 882.638C1195.87 906.677 1124.24 873.056 1054.92 840.519C981.622 806.191 906.168 770.738 836.037 805.316C804.096 821.022 779.562 849.268 755.799 876.556C739.289 895.553 722.199 915.175 702.68 930.715C603.193 1009.37 481.833 965.96 399.242 926.549C390.871 922.383 381.767 918.842 372.239 914.884C347.782 904.927 320.007 893.637 300.642 875.181C289.532 864.641 282.01 847.143 274.719 830.187C264.689 806.899 254.312 782.819 234.369 776.028C221.716 771.866 208.556 769.788 195.33 769.863C150.813 769.863 105.872 791.693 66.2162 814.648L55.7621 820.647C7.0793 848.976 -43.2623 878.347 -97.5771 874.39C-138.043 871.473 -175.076 849.81 -210.952 829.229C-216.237 826.146 -221.521 823.063 -226.884 820.022V822.689C-221.869 825.521 -216.892 828.396 -211.955 831.271C-175.963 852.101 -138.66 873.765 -97.8086 876.723C-42.8765 880.68 7.73509 851.185 56.7265 822.564L67.0262 816.564C117.946 787.069 177.585 759.489 233.558 778.111C252.576 784.444 262.722 808.066 272.559 830.896C279.927 848.018 287.565 865.766 299.022 876.723C318.695 895.428 346.624 906.802 371.274 916.884C380.918 920.8 390.022 924.508 398.278 928.465C447.423 951.962 510.148 976.792 573.991 976.792C618.122 976.792 662.715 964.918 703.876 932.465C723.55 916.884 740.716 897.178 757.304 878.306C780.912 851.184 805.292 823.147 836.847 807.482C906.284 773.32 977.958 807.024 1053.99 842.686C1123.66 875.389 1195.68 909.343 1264.89 884.888C1337.14 859.517 1376.49 782.736 1414.52 708.455C1417.3 702.997 1420.11 697.539 1422.89 692.165C1458.15 623.966 1515.09 544.728 1590.47 541.353L1590.54 539.02Z" fill="#FA5255" fill-opacity="0.1"/>
<path style="mix-blend-mode:screen" opacity="0.7" d="M1590.55 487.069C1583.47 487.666 1576.36 487.596 1569.29 486.861C1565.93 486.569 1562.42 486.319 1559.07 486.236C1509.34 484.695 1462.17 517.732 1419.11 584.472C1407.7 602.385 1397.31 621.028 1387.98 640.298C1385.86 644.464 1383.78 648.88 1381.7 653.213C1347.52 723.286 1308.94 802.733 1241.2 830.729C1224.6 837.437 1207.08 841.071 1189.36 841.478C1145.34 843.019 1100.63 827.313 1058.66 810.107C1048.55 805.941 1038.25 801.525 1028.34 797.234C989.572 780.57 949.453 763.239 910.839 758.864C882.855 755.08 854.448 759.767 828.788 772.404C797.927 787.819 773.856 814.94 750.556 841.186C734.238 859.558 717.342 878.681 698.247 893.47C668.366 917.092 632.978 931.245 596.059 934.34C529.631 940.089 461.738 912.343 403.18 885.846C394.037 881.68 383.892 878.056 373.553 874.14C349.675 865.266 324.986 856.101 306.547 840.811C295.553 831.687 287.799 816.356 280.277 801.525C269.9 781.111 259.176 759.864 239.733 754.532C228.267 751.352 216.468 749.784 204.629 749.866C184.037 750.301 163.607 753.892 143.949 760.531C120.72 768.13 98.0822 777.7 76.2487 789.152C69.0736 792.735 61.8985 796.484 54.6463 800.234C41.6462 806.941 28.1832 813.898 14.6816 820.397C-15.2147 834.77 -47.5027 848.102 -81.1409 848.102H-81.5653C-94.0444 847.958 -106.463 846.21 -118.56 842.894C-143.75 836.228 -168.708 823.605 -192.78 811.357C-203.928 805.691 -215.231 799.984 -226.726 794.693V797.192C-215.539 802.317 -204.545 807.899 -193.705 813.44C-169.48 825.688 -144.483 838.436 -119.1 845.102C-106.828 848.471 -94.2264 850.233 -81.5653 850.351H-81.1409C-47.0784 850.351 -14.5589 836.978 15.5689 822.48C29.0704 815.981 42.572 809.024 55.5721 802.275C62.8243 798.525 70.0123 794.831 77.136 791.193C98.8657 779.826 121.386 770.312 144.49 762.739C181.098 751.24 212.113 749.366 239.271 756.99C257.826 762.156 267.855 781.986 278.464 802.816C286.179 817.856 293.894 833.396 305.467 842.811C324.176 858.309 349.058 867.557 373.09 876.473C383.583 880.347 393.497 884.055 402.562 888.138C455.952 912.301 517.171 937.547 578.16 937.547C584.216 937.547 590.273 937.298 596.291 936.798C633.546 933.683 669.263 919.431 699.443 895.637C718.731 880.597 735.627 861.517 752.022 843.061C775.167 817.023 799.123 790.027 829.636 774.779C854.972 762.306 883.024 757.704 910.646 761.489C948.99 765.655 988.916 783.028 1027.57 799.692C1037.52 803.858 1047.82 808.399 1057.97 812.565C1100.05 829.854 1145.11 845.602 1189.43 844.061C1207.43 843.641 1225.22 839.907 1242.05 833.021C1310.68 804.691 1349.49 724.703 1383.74 654.421C1385.82 650.255 1387.95 645.797 1390.03 641.506C1399.26 622.323 1409.57 603.764 1420.89 585.93C1463.52 519.856 1509.96 487.236 1558.99 488.652C1562.31 488.652 1565.78 489.027 1569.14 489.277C1576.25 490.026 1583.42 490.11 1590.55 489.527V487.069Z" fill="#FA5255" fill-opacity="0.1"/>
<path style="mix-blend-mode:screen" opacity="0.7" d="M1590.54 364.419C1590.27 365.336 1589.96 366.211 1589.73 367.127C1588.81 370.377 1587.96 373.835 1587.11 377.334C1582.4 396.54 1577.08 418.329 1556.75 428.535C1546.37 433.743 1534.8 433.493 1523.58 433.243C1520.1 433.243 1516.55 433.243 1513.12 433.243C1466.52 434.451 1422.89 468.613 1383.39 534.729C1372.97 552.494 1363.44 570.851 1354.84 589.721L1350.76 598.637C1318.66 668.543 1282.28 747.782 1217.98 778.903C1202.62 786.225 1186.27 790.852 1169.56 792.609C1134.61 796.525 1096.27 790.235 1045.23 772.154C1031.85 767.404 1018.23 761.989 1005 756.739C970.667 743.116 935.216 729.035 900.844 725.66C873.61 722.467 846.086 727.395 821.262 739.908C791.482 755.031 767.835 781.069 744.998 806.232C728.873 823.938 712.208 842.311 693.499 856.725C664.437 879.647 629.925 893.145 594.012 895.636C534.026 899.802 473.925 874.181 415.83 849.435L407.227 845.643C397.043 841.477 385.933 837.645 374.206 833.77C352.449 826.563 329.96 819.105 312.755 806.982C301.838 799.317 293.853 786.152 286.099 773.445C275.375 755.864 264.303 737.659 245.363 733.451C235.208 731.212 224.866 730.123 214.502 730.201C193.394 730.625 172.416 733.872 152.048 739.867C129.601 746.229 107.566 754.176 86.0828 763.655C66.5634 771.987 47.0439 781.236 26.4058 790.901L25.75 791.193C-5.11067 805.774 -34.6598 819.522 -65.8677 821.772C-77.4761 822.559 -89.1299 821.86 -100.586 819.689C-125.66 815.148 -149.925 804.649 -175.616 793.609C-192.32 786.402 -209.332 779.069 -226.884 773.32V775.778C-209.64 781.444 -192.86 788.651 -176.426 795.734C-150.619 806.857 -126.278 817.397 -100.972 821.98C-89.3099 824.17 -77.4512 824.883 -65.6363 824.105C-34.0812 821.813 -4.57063 807.982 26.6759 793.317L27.3316 793.026C47.9698 783.36 67.4506 774.237 86.97 765.78C108.325 756.346 130.232 748.441 152.549 742.116C189.659 731.951 218.938 729.91 244.745 735.742C262.799 739.908 273.137 756.573 284.093 774.695C291.808 787.652 300.102 801.025 311.366 808.899C328.841 821.397 351.485 828.729 373.396 835.978C384.969 839.853 396.117 843.519 406.224 847.81L414.827 851.476C468.833 874.514 524.729 898.303 580.703 898.303C585.101 898.303 589.46 898.303 593.857 897.844C630.199 895.343 665.126 881.7 694.54 858.517C713.404 843.977 730.146 825.563 746.348 807.774C769.069 782.777 792.639 756.864 821.957 741.908C846.448 729.581 873.599 724.74 900.459 727.91C934.483 731.243 969.895 745.283 1004 758.864C1017.19 764.113 1031 769.529 1044.31 774.278C1095.65 792.443 1134.27 798.775 1169.53 794.817C1186.47 793.05 1203.03 788.352 1218.59 780.903C1283.59 749.49 1320.16 669.835 1352.41 599.595L1356.5 590.679C1365.05 571.888 1374.54 553.613 1384.93 535.937C1424.01 470.446 1467.06 436.659 1512.89 435.493C1516.28 435.493 1519.83 435.493 1523.23 435.493C1534.8 435.701 1546.57 435.993 1557.41 430.535C1578.62 419.87 1584.1 397.54 1588.92 377.834C1589.39 376.001 1589.81 374.21 1590.27 372.418L1590.54 364.419Z" fill="#FA5255" fill-opacity="0.1"/>
<path style="mix-blend-mode:screen" opacity="0.7" d="M1590.54 274.349C1569.87 285.472 1553.93 301.678 1545.79 321.467C1544.71 324.092 1543.67 326.883 1542.59 329.799C1536.54 345.964 1529.67 364.294 1509.22 374.085C1499.31 378.876 1488.51 379.251 1478.06 379.625C1474.47 379.625 1470.76 379.917 1467.18 380.209C1422.97 384.167 1383.89 418.412 1347.59 484.902C1338.8 501.025 1330.31 518.731 1321.63 539.061L1319.86 543.228C1289.73 613.259 1255.59 692.665 1194.68 727.077C1180.57 735.025 1165.43 740.642 1149.77 743.741C1115.25 750.74 1077.75 747.907 1031.81 734.242C1015.99 729.576 999.83 723.66 984.168 717.911C953.5 706.663 921.752 694.998 891.046 692.456C864.551 689.847 837.895 695.014 813.894 707.413C785.232 722.244 762.048 747.115 739.674 771.237C724.061 788.993 707.092 805.298 688.947 819.98C660.622 842.158 626.946 854.981 592.006 856.892C540.815 859.475 489.972 838.269 440.788 817.814C431.028 813.648 420.96 809.482 411.085 805.607C399.512 801.066 386.666 797.275 374.129 793.776C354.648 788.193 334.55 782.402 318.695 773.279C307.933 767.071 299.677 756.073 291.692 745.449C280.621 730.743 269.202 715.537 250.802 712.495C242.501 711.159 234.119 710.504 225.727 710.537C203.776 710.96 181.926 713.865 160.534 719.203C138.834 724.31 117.395 730.637 96.3052 738.158C75.8599 745.407 56.5334 753.198 37.2454 761.988C31.7419 764.488 26.3027 767.016 20.9278 769.571C-3.22069 780.944 -26.0576 791.693 -49.7818 795.484C-60.589 797.164 -71.539 797.499 -82.417 796.484C-107.8 794.276 -133.029 785.36 -159.762 775.945C-181.651 767.611 -204.054 760.943 -226.807 755.989V758.364C-204.291 763.287 -182.12 769.899 -160.456 778.153C-133.453 787.61 -108.224 796.567 -82.5713 798.775C-71.5402 799.833 -60.4324 799.497 -49.4732 797.775C-25.4404 793.942 -2.48773 783.152 21.7765 771.695C27.1514 769.14 32.5778 766.613 38.0555 764.113C57.3435 755.364 76.6314 747.449 96.9995 740.366C118.018 732.892 139.378 726.593 160.997 721.494C188 715.162 219.902 709.412 250.609 714.453C268.161 717.37 278.846 731.534 290.111 746.574C298.25 757.406 306.66 768.571 317.808 774.987C333.856 784.235 354.108 790.068 373.704 795.817C386.164 799.4 399.087 803.108 410.429 807.607C420.304 811.523 430.372 815.689 440.132 819.772C486.771 839.186 534.913 859.225 583.596 859.225C586.451 859.225 589.344 859.225 592.198 858.975C627.553 857.076 661.635 844.122 690.297 821.688C708.775 807.649 725.285 789.859 741.294 772.654C763.553 748.699 786.582 723.952 814.936 709.287C838.608 697.092 864.887 692.011 891.007 694.581C921.482 697.081 953.076 708.663 983.59 719.911C999.29 725.66 1015.49 731.576 1031.35 736.242C1077.64 749.865 1115.44 752.906 1150.28 745.824C1166.13 742.727 1181.47 737.112 1195.8 729.16C1257.52 694.331 1291.66 614.592 1321.94 544.227L1323.67 540.061C1332.35 519.814 1340.84 502.192 1349.56 486.152C1385.36 420.328 1423.89 386.458 1467.37 382.583C1470.88 382.25 1474.43 382.125 1478.13 382C1488.78 381.625 1499.81 381.209 1510.11 376.251C1531.33 366.086 1538.39 347.088 1544.6 330.716C1545.64 327.883 1546.68 325.133 1547.76 322.384C1555.48 303.719 1570.71 288.138 1590.54 277.223V274.349Z" fill="#FA5255" fill-opacity="0.1"/>
<path style="mix-blend-mode:screen" opacity="0.7" d="M1590.55 231.438C1550.81 234.354 1517.56 250.519 1501.82 275.765C1500.47 277.931 1499.16 280.264 1497.97 282.639C1490.56 295.596 1482.15 310.26 1461.78 319.509C1452.53 323.172 1442.81 325.266 1432.96 325.716C1429.11 326.091 1425.25 326.508 1421.39 327.091C1380.39 333.674 1344.66 368.752 1312.15 435.034C1304.43 450.699 1296.71 468.113 1288.77 488.277C1260.92 558.017 1229.36 637.089 1171.77 674.959C1158.85 683.429 1144.93 689.947 1130.38 694.331C1096.54 704.746 1060.01 705.205 1018.78 695.706C1001.15 691.54 983.093 685.541 965.618 679.625C937.92 670.21 909.297 660.503 881.522 658.794C855.77 656.783 829.986 662.189 806.801 674.459C779.219 688.957 756.652 712.745 734.625 735.742C719.121 752.867 702.349 768.598 684.476 782.777C656.927 804.233 624.103 816.383 590.158 817.689C545.41 819.064 501.434 800.525 458.73 782.61C444.457 776.611 429.683 770.404 415.139 765.071C401.396 760.37 387.423 756.49 373.285 753.448C356.797 750.135 340.601 745.313 324.872 739.033C314.186 734.284 305.584 725.452 297.444 716.911C286.064 705.08 274.299 692.831 256.438 690.998C250.69 690.415 244.865 690.165 239.079 690.165C215.499 690.782 192.012 693.57 168.871 698.497C144.105 703.247 124.238 707.704 106.378 712.62C86.6735 717.824 67.3368 724.535 48.5139 732.701C38.4842 737.159 28.8402 741.991 19.5048 746.657C1.21985 755.823 -16.0621 764.488 -33.9228 769.154C-43.8947 771.752 -54.1024 773.15 -64.3592 773.32C-90.4751 773.862 -117.44 766.446 -145.947 758.655C-171.832 751.615 -198.565 744.324 -226.957 742.324V744.657C-198.951 746.657 -172.333 753.906 -146.603 760.947C-117.941 768.737 -90.8608 776.111 -64.4363 775.653C-54.0386 775.499 -43.6886 774.102 -33.5756 771.487C-15.4835 766.779 1.87566 758.072 20.4307 748.865C29.7275 744.199 39.3714 739.366 49.324 734.95C68.0452 726.818 87.279 720.135 106.879 714.953C124.701 710.079 144.529 705.621 169.218 700.872C199.153 695.248 228.316 690.415 256.245 693.248C273.334 694.998 284.328 706.413 295.978 718.494C304.349 727.202 312.99 736.2 324.062 741.116C339.91 747.427 356.22 752.291 372.822 755.656C386.88 758.666 400.775 762.504 414.445 767.154C428.95 772.529 443.686 778.694 457.959 784.693C499.273 802.066 541.977 819.98 585.491 819.98H590.197C624.567 818.649 657.802 806.356 685.711 784.652C703.586 770.384 720.358 754.57 735.859 737.367C757.655 714.495 780.183 690.832 807.456 676.5C830.304 664.404 855.719 659.084 881.098 661.086C908.641 662.877 937.149 672.543 964.692 681.916C982.205 687.832 1000.34 693.998 1018.04 698.081C1059.67 707.663 1096.51 707.163 1130.68 696.623C1145.42 692.195 1159.53 685.607 1172.62 677.042C1230.79 638.756 1262.5 559.35 1290.5 489.277C1298.45 469.196 1305.93 451.782 1313.65 436.201C1345.82 370.835 1381.04 335.923 1421.31 329.466C1425.17 328.883 1429.03 328.508 1432.89 328.091C1442.94 327.64 1452.87 325.504 1462.32 321.759C1483.31 312.177 1492.26 296.762 1499.47 283.972C1500.82 281.598 1502.13 279.306 1503.33 277.182C1518.76 252.477 1551.12 236.729 1590.16 233.854L1590.55 231.438Z" fill="#FA5255" fill-opacity="0.1"/>
<path style="mix-blend-mode:screen" opacity="0.7" d="M1590.54 208.233C1585.07 207.192 1579.39 206.234 1573.49 205.442C1524.12 198.776 1479.87 208.275 1458.07 230.23C1456.18 232.147 1454.22 234.396 1452.29 236.438C1441.8 249.059 1428.76 258.896 1414.17 265.184C1405.79 268.456 1397.07 270.665 1388.21 271.766C1383.74 272.516 1379.49 273.224 1375.29 274.224C1336.98 283.431 1305.51 318.759 1276.3 385.375C1269.63 400.581 1262.84 417.704 1255.51 437.743C1233.29 498.359 1202.82 581.306 1148.42 623.258C1136.65 632.262 1123.92 639.703 1110.5 645.422C1077.12 659.81 1040.73 664.046 1005.27 657.67C985.904 654.009 966.781 648.985 948.023 642.63C922.871 634.756 896.833 626.633 871.565 625.424C846.595 623.895 821.688 629.439 799.313 641.505C772.888 655.67 750.707 678.334 729.297 700.206C714.04 716.719 697.608 731.916 680.152 745.658C650.796 767.279 619.935 778.361 588.457 778.57C548.569 778.944 509.839 761.905 472.343 745.866C455.023 738.367 437.162 730.576 419.301 724.577C403.52 719.73 387.447 716.069 371.197 713.62C357.701 711.563 344.331 708.642 331.156 704.872C321.114 701.141 311.735 695.59 303.419 688.457C291.847 679.5 279.541 670.21 262.22 669.627C259.983 669.627 257.746 669.627 255.47 669.627C233.899 670.194 212.389 672.338 191.086 676.042L177.431 678.042L162.617 680.125C146.686 682.375 131.757 684.291 116.673 687.291C97.3194 690.598 78.3394 696.085 60.044 703.663C46.9402 709.504 34.1283 716.082 21.661 723.369C8.86475 730.896 -4.41348 737.426 -18.0722 742.908C-27.2204 746.38 -36.687 748.782 -46.3097 750.074C-73.8529 753.906 -103.479 748.157 -134.803 742.033C-157.642 737.086 -180.741 733.663 -203.969 731.784L-226.884 730.493V732.826L-204.085 734.117C-180.945 735.967 -157.935 739.376 -135.189 744.324C-103.672 750.49 -73.9301 756.281 -46.0397 752.407C-36.2662 751.049 -26.6485 748.606 -17.3392 745.116C-3.69945 739.52 9.56401 732.908 22.3554 725.327C34.7826 718.092 47.5419 711.543 60.5841 705.705C78.7916 698.171 97.6818 692.725 116.944 689.457C131.795 686.666 146.84 684.541 162.81 682.291L177.585 680.208L191.279 678.209C214.695 674.709 238.882 671.126 262.027 671.918C278.731 672.501 290.072 681.167 302.069 690.332C310.578 697.605 320.182 703.242 330.461 706.996C343.72 710.752 357.166 713.687 370.734 715.787C386.891 718.224 402.873 721.857 418.569 726.66C436.313 732.659 454.174 740.408 471.417 747.866C508.72 764.072 547.258 780.778 587.145 780.778H588.457C620.398 780.569 651.644 769.362 681.386 747.449C698.99 733.682 715.564 718.443 730.956 701.872C752.25 680.083 774.315 657.545 800.393 643.547C822.442 631.578 846.999 626.021 871.642 627.424C896.64 628.632 922.524 636.714 947.56 644.547C966.419 650.948 985.645 656.013 1005.12 659.711C1040.96 666.107 1077.74 661.784 1111.47 647.213C1125.12 641.459 1138.08 633.933 1150.04 624.8C1204.94 582.472 1235.53 499.151 1257.86 438.284C1265.16 418.287 1271.94 401.164 1278.58 386.042C1307.51 320.134 1338.49 285.222 1376.1 276.182C1380.23 275.182 1384.43 274.474 1388.91 273.724C1397.93 272.598 1406.79 270.347 1415.33 267.017C1430.18 260.642 1443.47 250.664 1454.18 237.854C1456.14 235.688 1458.03 233.688 1459.89 231.73C1481.22 210.233 1524.81 200.943 1573.57 207.567C1579.59 208.358 1585.34 209.316 1590.89 210.4L1590.54 208.233Z" fill="#FA5255" fill-opacity="0.1"/>
<path style="mix-blend-mode:screen" opacity="0.7" d="M1590.54 195.735L1581.36 192.444C1563.54 186.68 1545.38 182.213 1527.01 179.07C1478.63 169.947 1437.59 171.905 1414.41 184.486C1410.74 186.486 1407.08 188.652 1403.18 191.319C1391.64 198.945 1379.46 205.375 1366.8 210.524C1359.54 213.273 1352.1 215.445 1344.54 217.023C1339.26 218.273 1334.28 219.44 1329.42 221.189C1283.36 236.437 1256.71 293.763 1240.7 335.507C1235.03 350.255 1229.13 366.627 1222.53 387.041C1199.38 456.74 1172.65 528.396 1125.36 571.307C1114.73 580.923 1103.2 589.302 1090.95 596.303C1060.9 614.643 1026.42 622.719 992.038 619.467C971.632 616.878 951.472 612.39 931.782 606.052C908.636 599.428 885.028 592.596 861.921 591.929C837.672 591.095 813.623 596.915 792.022 608.843C766.716 622.675 745.075 644.172 724.167 664.919C708.976 680.812 692.688 695.436 675.445 708.663C646.475 729.493 616.578 740.158 586.373 739.575C550.498 739.117 515.934 723.411 482.527 708.204C463.19 698.923 443.351 690.909 423.12 684.208C404.795 679.303 386.102 676.166 367.262 674.834C356.5 673.709 346.354 672.626 337.019 670.96C327.212 668.8 317.733 665.168 308.858 660.169C297.286 654.379 285.481 648.379 269.858 648.379H267.582C251.38 648.963 234.6 651.212 218.398 653.379C207.674 654.795 196.564 656.295 185.57 657.295C175.579 658.253 165.587 658.878 155.943 659.503C146.299 660.128 136.231 660.753 126.587 661.711C107.681 663.127 89.0426 667.333 71.1922 674.209C55.4752 681.262 40.3818 689.838 26.097 699.831C16.453 706.121 7.3105 712.037 -2.10202 716.87C-10.451 721.196 -19.1722 724.628 -28.1407 727.118C-57.8828 735.451 -91.6367 731.284 -127.397 726.827C-144.524 724.702 -162.115 722.661 -180.323 721.578C-195.985 720.786 -211.492 719.62 -226.614 718.411V720.661C-211.183 721.869 -195.753 722.994 -180.323 723.827C-162.308 724.744 -144.601 726.91 -127.512 729.035C-91.5596 733.451 -57.6127 737.659 -27.5235 729.285C-18.4061 726.764 -9.54196 723.275 -1.06047 718.87C8.46779 713.995 17.6489 708.038 27.3314 701.747C41.5282 692.017 56.4888 683.653 72.0409 676.751C89.7077 669.884 108.166 665.678 126.896 664.252C136.501 663.294 146.184 662.669 156.175 662.044C166.166 661.419 175.849 660.794 185.878 659.836C196.872 658.795 208.021 657.337 218.784 655.67C234.947 653.504 251.689 651.504 267.736 650.712C283.784 649.921 295.704 656.003 308.087 662.253C317.145 667.329 326.82 671.003 336.826 673.168C346.2 674.876 356.422 675.917 367.224 677.084C385.922 678.432 404.472 681.569 422.657 686.457C442.802 693.12 462.552 701.106 481.794 710.371C515.394 725.66 550.151 741.45 586.451 741.908H588.457C618.353 741.908 648.056 731.368 676.757 710.579C694.046 697.244 710.372 682.509 725.594 666.502C746.386 645.672 768.027 624.466 792.947 610.801C814.194 598.993 837.886 593.256 861.767 594.137C884.642 594.845 908.289 601.636 931.203 608.218C951.007 614.592 971.283 619.108 991.806 621.717C1026.6 625.006 1061.5 616.828 1091.91 598.261C1104.27 591.181 1115.91 582.719 1126.63 573.015C1174.31 529.729 1201.08 457.74 1224.42 387.749C1231.17 367.377 1236.92 351.046 1242.59 336.34C1258.44 294.971 1284.75 238.312 1329.96 223.314C1334.71 221.731 1339.65 220.565 1344.85 219.148C1352.51 217.527 1360.05 215.313 1367.42 212.524C1380.24 207.29 1392.57 200.762 1404.26 193.027C1408.12 190.569 1411.74 188.236 1415.33 186.278C1438.13 173.779 1478.67 172.03 1526.62 181.028C1544.88 184.292 1562.92 188.843 1580.63 194.652L1590.47 198.193L1590.54 195.735Z" fill="#FA5255" fill-opacity="0.1"/>
<path style="mix-blend-mode:screen" opacity="0.7" d="M1590.54 181.403C1574.62 178.447 1558.89 174.397 1543.44 169.28L1533.06 166.114C1518.98 161.947 1504.48 158.406 1490.44 154.99L1480.48 152.574C1427.29 139.492 1392.42 135.076 1370.7 138.784C1358.78 140.784 1347.55 145.117 1328.92 152.282L1319.16 155.99C1313.41 158.198 1307.59 159.906 1302.3 161.531C1295.89 163.342 1289.57 165.511 1283.36 168.03C1242.01 186.111 1219.71 240.353 1204.78 285.597C1199.11 302.928 1193.71 320.925 1189.16 336.256C1168.83 404.455 1144.18 473.737 1101.94 519.314C1092.42 529.523 1082.09 538.821 1071.08 547.102C1039.91 570.807 1010.55 581.597 978.496 581.18C958.051 580.889 936.718 575.264 916.119 569.848C895.519 564.433 873.184 558.558 851.929 558.35C828.434 558.114 805.257 564.215 784.498 576.098C760.388 589.554 739.326 609.884 718.919 629.507C703.809 644.782 687.708 658.872 670.738 671.667C641.729 692.29 613.452 701.747 584.25 700.622C551.577 699.414 520.523 684.457 490.472 669.959C469.95 660.086 448.733 649.837 426.899 643.838C405.683 638.005 382.229 637.672 361.32 637.339C354.801 637.339 348.629 637.131 342.727 636.881C333.075 636.225 323.51 634.508 314.181 631.756C300.747 627.501 286.71 625.906 272.75 627.049C263.492 628.132 253.925 629.507 244.705 630.881C228.002 633.339 210.759 635.922 193.592 636.589C181.711 637.131 169.868 636.839 158.488 636.589C151.66 636.339 143.945 636.172 136.693 636.172C118.343 635.698 100.059 638.731 82.6866 645.129C63.7459 652.628 48.2769 664.543 33.3095 676.083C26.713 681.208 20.4637 686.04 14.0215 690.415C6.42213 695.611 -1.5802 700.085 -9.89551 703.788C-42.8393 718.161 -83.1897 715.536 -125.623 712.745C-135.73 712.078 -146.184 711.412 -156.484 710.954C-180.169 709.912 -203.546 707.371 -226.499 704.413V706.746C-203.585 709.704 -180.208 712.245 -156.561 713.245C-146.146 713.703 -135.691 714.411 -125.7 715.078C-108.727 716.161 -92.1393 717.244 -76.246 717.244C-51.9432 717.244 -29.222 714.745 -9.04683 705.913C-0.610413 702.197 7.4978 697.665 15.1788 692.373C21.6982 687.957 27.9475 683.124 34.4668 678C49.2799 666.543 64.6331 654.711 83.3039 647.296C100.498 641.005 118.583 638.03 136.731 638.505C143.984 638.505 151.159 638.505 158.758 638.839C170.331 639.13 181.904 639.422 194.017 638.839C211.299 638.13 228.735 635.589 245.323 633.131C254.542 631.756 264.071 630.34 273.329 629.298C287.042 628.134 300.837 629.701 314.026 633.923C323.495 636.712 333.202 638.457 342.997 639.13C348.938 639.38 355.11 639.464 361.668 639.589C382.228 639.88 405.567 640.255 426.514 646.004C448.245 652.722 469.409 661.419 489.778 672.001C519.983 686.582 551.268 701.663 584.328 702.871C613.992 703.996 642.693 694.539 672.049 673.709C689.132 660.861 705.325 646.687 720.5 631.298C740.753 611.759 761.738 591.595 785.617 578.264C806.051 566.55 828.872 560.536 852.006 560.766C873.03 560.975 894.748 566.682 915.694 572.181C936.641 577.681 957.897 583.305 978.573 583.555C1011.09 584.013 1040.83 573.098 1072.39 549.101C1083.54 540.739 1094 531.344 1103.64 521.022C1146.07 475.195 1170.95 405.538 1191.36 337.048C1195.91 321.717 1201.31 303.719 1206.79 286.43C1221.45 241.645 1243.44 187.985 1283.94 170.28C1290.06 167.776 1296.31 165.635 1302.65 163.864C1308.13 162.197 1313.84 160.489 1319.62 158.281L1329.42 154.532C1347.9 147.408 1359.09 143.117 1370.81 141.159C1392.22 137.493 1426.86 141.909 1479.75 154.907L1489.74 157.365C1503.75 160.739 1518.21 164.28 1532.18 168.447L1542.55 171.613C1558.29 176.769 1574.32 180.818 1590.54 183.736V181.403Z" fill="#FA5255" fill-opacity="0.1"/>
<path style="mix-blend-mode:screen" opacity="0.7" d="M1590.54 146.783C1585.7 148.37 1580.72 149.471 1575.69 150.075C1544.83 153.699 1516.21 147.492 1484.73 139.618L1476.67 137.618C1462.51 134.118 1447.89 130.494 1433.96 126.203C1418.53 121.454 1404.26 116.496 1390.37 111.705C1365.34 103.039 1343.66 95.7488 1327.07 93.2492C1310.48 90.7496 1295.21 93.2492 1271.67 101.581L1264.19 104.081C1255.01 106.922 1246.05 110.573 1237.42 114.996C1200.12 135.827 1181.37 190.444 1169.22 235.812C1165.78 248.602 1162.43 261.517 1159.11 274.474L1156.22 285.639C1141.09 343.339 1118.64 416.204 1079.06 467.488C1070.56 478.363 1061.38 488.607 1051.6 498.15C1031.69 517.689 1003.92 540.436 965.382 543.019C944.589 544.477 922.717 539.228 901.577 534.187C881.981 529.521 861.96 524.855 842.17 524.855C819.441 525.186 797.134 531.538 777.208 543.352C754.294 556.392 733.849 575.473 714.06 593.929C699.025 608.682 683.055 622.283 666.264 634.631C637.679 654.545 610.252 663.335 582.4 661.586C552.465 659.753 524.343 645.255 497.147 631.257C475.931 620.3 453.981 608.968 430.951 603.427C405.645 597.345 378.642 599.969 354.841 602.302L349.016 602.886C339.351 603.659 329.652 603.84 319.968 603.427C306.133 602.597 292.256 603.379 278.576 605.76L270.591 607.343C248.371 611.718 225.38 616.217 202.196 615.925C189.62 615.925 177.122 614.217 165.047 612.759C159.03 612.009 152.78 611.26 146.762 610.676C128.966 608.294 110.903 610.07 93.7977 615.884C73.0439 623.799 57.3435 638.506 42.1832 652.754C37.9012 656.92 33.8893 660.544 29.7231 664.169C22.8968 670.345 15.621 675.918 7.96631 680.833C-29.8381 704.371 -82.3784 702.497 -133.221 700.663C-164.64 699.039 -195.914 695.015 -226.807 688.624V690.998C-195.936 697.361 -164.69 701.37 -133.299 702.996C-119.566 703.496 -105.717 703.996 -92.061 703.996C-54.7967 703.996 -18.9982 700.33 9.04643 682.833C16.7921 677.927 24.1583 672.354 31.0733 666.168C35.2395 662.461 39.4828 658.503 43.5719 654.67C58.6165 640.589 74.124 626.007 94.5306 618.258C111.352 612.485 129.13 610.708 146.647 613.051C152.665 613.592 158.875 614.342 164.855 615.092C177.269 616.848 189.758 617.919 202.273 618.3C225.612 618.592 248.757 614.134 271.054 609.676L278.962 608.177C292.514 605.815 306.262 605.033 319.968 605.844C329.729 606.298 339.507 606.117 349.247 605.302L355.072 604.76C378.719 602.427 405.53 599.803 430.527 605.844C453.325 611.343 475.159 622.508 496.106 633.465C523.495 647.588 551.809 662.169 582.169 664.044C610.483 665.877 638.335 656.92 667.306 636.714C684.245 624.248 700.369 610.537 715.564 595.678C735.238 577.306 755.567 558.184 778.289 545.394C797.877 533.762 819.818 527.523 842.17 527.23C861.458 526.938 881.518 531.812 900.883 536.395C922.177 541.478 944.165 546.769 965.305 545.31C1004.46 542.686 1032.66 519.606 1052.79 499.817C1062.66 490.226 1071.9 479.911 1080.45 468.946C1120.46 417.287 1142.99 343.964 1158.15 286.222L1161.19 274.89C1164.51 261.975 1167.87 249.019 1171.3 236.271C1183.34 191.569 1201.81 137.41 1238.42 117.121C1246.94 112.744 1255.78 109.135 1264.85 106.331L1272.33 103.706C1295.48 95.3739 1310.29 93.2492 1326.8 95.5822C1343.31 97.9152 1364.8 105.289 1389.76 113.913C1403.68 118.746 1418.07 123.703 1433.42 128.453C1447.39 132.619 1462.05 136.368 1476.2 139.868L1484.3 141.909C1515.98 149.825 1544.71 156.074 1575.96 152.408C1580.91 151.792 1585.8 150.719 1590.58 149.2L1590.54 146.783Z" fill="#FA5255" fill-opacity="0.1"/>
<path style="mix-blend-mode:screen" opacity="0.7" d="M1590.55 85.334C1586.69 88.6252 1583.06 91.7498 1578.97 94.666C1563.02 106.568 1544.73 114.324 1525.55 117.329C1495.8 121.076 1465.69 119.67 1436.36 113.163C1419.78 110.133 1403.45 105.703 1387.52 99.9153C1365.52 91.024 1344.13 80.486 1323.48 68.378C1310.47 60.706 1297.07 53.8484 1283.33 47.8393C1263.54 39.9654 1246.41 39.5071 1224.15 47.0477C1212.67 50.427 1201.67 55.502 1191.48 62.1289C1158.26 85.2923 1143.57 137.743 1133.61 186.028C1130.53 200.859 1126.9 218.107 1123.16 234.98C1105.8 312.635 1083.77 371.71 1055.85 415.621C1048.4 427.17 1040.4 438.295 1031.89 448.949C1012.6 473.404 987.913 499.151 951.999 504.692C931.014 507.983 908.794 503.192 887.307 498.609C869.331 494.735 850.699 490.735 832.529 491.319C810.564 492.233 789.122 498.819 769.998 510.524C748.357 523.022 728.606 540.978 709.472 558.226C694.422 572.45 678.52 585.588 661.87 597.554C633.748 616.718 607.169 624.883 580.629 622.55C553.008 620.134 527.433 605.886 502.667 592.221C481.141 580.306 458.922 567.933 435.043 563.058C407.732 557.434 379.533 563.058 355.23 568.933C344.969 571.391 335.325 573.099 326.028 575.057C312.951 577.598 299.449 580.223 284.25 584.514C262.223 590.721 236.57 597.012 210.724 595.262C198.037 594.02 185.444 591.835 173.036 588.721C167.789 587.513 162.35 586.263 157.027 585.222C141.596 582.222 123.581 580.014 105.219 586.638C83.0767 594.637 67.8006 612.385 53.026 629.507C50.5958 632.34 48.1655 635.173 45.6966 637.84C39.6281 644.873 33.0913 651.417 26.1386 657.42C-10.7399 688.582 -65.7878 691.207 -109.571 689.957C-149.613 688.874 -188.768 679.5 -226.726 670.002V672.376C-188.806 681.875 -149.575 691.165 -109.649 692.29C-104.557 692.29 -99.3488 692.54 -94.2182 692.54C-53.1349 692.54 -5.84081 687.249 27.2573 659.212C34.2782 653.128 40.8912 646.515 47.0468 639.423C49.5156 636.631 51.9459 633.798 54.4148 631.091C68.9965 614.176 84.0797 596.679 105.682 588.846C123.581 582.389 141.403 584.68 156.448 587.513C161.733 588.555 167.172 589.805 172.418 590.971C184.911 594.143 197.596 596.356 210.377 597.595C236.57 599.512 262.416 593.013 284.597 586.763C299.719 582.597 313.182 579.889 326.182 577.348C335.556 575.557 345.239 573.682 355.5 571.182C379.571 565.475 407.539 559.809 434.465 565.35C457.996 570.224 480.138 582.472 501.51 594.512C526.43 608.344 552.198 622.633 580.282 625.091C607.285 627.508 634.288 619.217 662.834 599.803C679.551 587.751 695.529 574.545 710.668 560.267C729.725 543.061 749.244 525.314 770.846 512.816C789.714 501.247 810.886 494.759 832.568 493.902C850.467 493.318 868.984 497.276 886.844 501.15C908.524 505.775 930.898 510.566 952.423 507.275C989.263 501.567 1015.19 473.946 1033.63 450.699C1042.21 439.945 1050.25 428.709 1057.74 417.037C1085.82 372.877 1107.88 313.552 1125.4 235.605C1129.26 218.732 1132.73 201.484 1135.81 186.611C1145.77 138.826 1160.31 86.8754 1192.83 64.1286C1202.87 57.6592 1213.68 52.6844 1224.96 49.3391C1246.76 42.1734 1263.54 42.4234 1282.83 50.1306C1296.49 56.0892 1309.82 62.8912 1322.75 70.5027C1343.46 82.7004 1364.95 93.2816 1387.06 102.165C1403.1 108 1419.54 112.431 1436.24 115.413C1465.8 121.94 1496.12 123.346 1526.09 119.579C1545.6 116.496 1564.2 108.599 1580.44 96.4991C1584.03 93.8745 1587.42 91.1665 1590.74 88.1669L1590.55 85.334Z" fill="#FA5255" fill-opacity="0.1"/>
<path style="mix-blend-mode:screen" opacity="0.7" d="M1590.54 18.3843C1583.82 26.6034 1576.37 34.0833 1568.28 40.7145C1555.48 51.2704 1541.62 60.255 1526.97 67.5024C1510.65 75.7461 1493.34 81.4949 1475.55 84.5833C1446.65 89.7713 1417.21 90.4588 1388.14 86.6247C1371.95 84.5508 1356.09 80.1369 1341 73.5016C1317 62.6698 1295.98 45.7138 1275.61 29.3411C1264.06 19.6156 1252.01 10.6159 1239.5 2.3866C1217.55 -11.2365 1198.77 -14.2777 1176.62 -7.48701C1165.29 -4.31029 1154.69 1.36337 1145.49 9.17731C1116.29 34.5071 1105.34 85.2083 1097.81 136.284C1095.5 152.365 1092.88 168.53 1090.1 184.361C1077.29 253.893 1058 314.301 1032.7 363.794C1026.49 375.959 1019.77 387.832 1012.25 400.164C995.008 428.327 972.788 458.489 938.687 466.821C917.663 472.07 895.251 467.779 873.61 463.655C856.906 460.489 839.663 457.197 822.805 458.114C801.61 459.612 781.03 466.431 762.704 478.028C742.413 490.151 723.434 506.649 704.84 522.647C689.699 536.427 673.774 549.173 657.16 560.808C629.116 579.472 604.118 586.762 578.581 583.805C553.044 580.847 529.705 566.515 506.946 553.101C485.459 540.227 463.278 526.938 438.936 522.772C410.699 518.022 382.538 526.938 361.167 535.02C350.212 539.186 339.488 543.56 329.149 547.726C316.535 552.851 303.458 558.1 289.686 563.307C269.357 570.931 245.054 578.222 219.015 574.681C206.422 572.535 194.029 569.189 181.982 564.682C177.083 563.016 172.03 561.308 167.053 559.808C152.086 555.225 134.38 551.476 116.442 557.475C93.2962 565.349 79.0617 586.221 65.213 606.426C64.0171 608.218 62.7827 610.009 61.5482 611.759C56.1985 619.716 50.3877 627.3 44.1505 634.464C9.43221 673.209 -45.9628 680.291 -86.1203 679.666C-131.408 678.791 -175.655 665.21 -218.397 652.045L-220.326 651.462L-226.807 649.42V651.878L-220.943 653.711L-218.976 654.295C-176.118 667.459 -131.756 681.124 -86.1589 681.999H-80.5654C-40.5236 681.999 12.0168 673.667 45.6936 636.172C51.9954 628.951 57.8583 621.297 63.2456 613.259L67.1032 607.884C80.7591 588.012 94.8393 567.432 117.252 559.766C134.65 553.809 151.97 557.642 166.629 562.141C171.567 563.641 176.62 565.349 181.481 567.015C193.655 571.547 206.177 574.907 218.899 577.056C245.324 580.638 269.974 573.264 290.573 565.599C304.345 560.391 317.577 555.1 330.075 550.018C340.414 545.852 351.099 541.686 362.055 537.311C383.194 529.187 411.007 520.647 438.743 525.146C462.738 529.312 484.765 542.435 506.058 555.225C528.895 568.89 552.35 583.055 578.581 586.054C604.813 589.054 630.041 581.888 658.51 562.766C675.197 551.068 691.198 538.268 706.422 524.438C724.745 508.482 743.647 492.026 763.784 480.028C781.789 468.568 802.029 461.819 822.882 460.322C839.509 459.405 856.675 462.697 873.224 465.821C895.096 469.987 917.74 474.153 939.15 468.946C973.868 460.28 996.551 429.91 1014.03 401.372C1021.74 388.874 1028.34 377.042 1034.59 364.835C1059.97 315.134 1079.37 254.518 1092.22 184.736C1095.11 168.863 1097.74 152.657 1099.93 136.576C1107.34 85.9581 1118.18 35.7152 1146.8 10.8854C1155.8 3.33667 1166.13 -2.14949 1177.16 -5.23732C1198.69 -11.7781 1217.01 -8.90348 1238.38 4.38632C1250.79 12.5968 1262.75 21.5542 1274.22 31.2159C1294.67 47.8802 1315.81 64.5445 1340.03 75.6679C1355.31 82.3541 1371.34 86.823 1387.71 88.9577C1417.01 92.7979 1446.67 92.0964 1475.78 86.8747C1493.76 83.7293 1511.24 77.911 1527.74 69.5855C1542.55 62.2959 1556.55 53.226 1569.48 42.5476C1577.03 36.2984 1584.04 29.3267 1590.43 21.7172L1590.54 18.3843Z" fill="#FA5255" fill-opacity="0.1"/>
<path style="mix-blend-mode:screen" opacity="0.7" d="M1590.54 -55.6465C1588.71 -49.297 1586.36 -43.1349 1583.52 -37.2324C1555.13 21.9676 1487.08 39.7984 1425.36 51.8384C1376.33 61.462 1332.78 67.7528 1294.2 47.1724C1271.83 35.1324 1252.08 14.1354 1233.02 -6.19511C1200.58 -40.7319 1169.95 -73.3523 1128.86 -61.9789C1076.94 -47.6893 1067.14 22.0926 1061.86 86.4169C1054.4 178.559 1030.91 268.354 992.615 351.088C978.612 381.084 958.321 416.995 925.339 428.535C904.469 435.868 882.905 432.327 860.299 428.535C844.737 425.278 828.89 423.881 813.044 424.369C771.035 427.661 735.429 457.448 701.174 486.277C661.248 519.606 623.559 551.268 577.037 544.602C553.197 541.103 531.749 527.147 511.033 513.648C490.318 500.15 467.906 485.569 443.178 482.32C405.528 477.32 370.501 498.484 336.632 518.939C301.913 539.77 265.768 561.683 227.655 553.976C215.089 550.823 202.859 546.272 191.162 540.395C170.64 531.021 149.462 521.314 128.09 528.188C104.443 535.77 91.5205 559.85 79.0219 583.18C74.0525 592.889 68.5655 602.279 62.5886 611.301C37.0128 648.088 -9.5869 669.627 -62.243 669.168C-109.846 668.627 -155.635 652.129 -199.959 636.173C-208.639 633.007 -217.588 629.632 -226.499 625.883V628.382C-217.781 632.007 -209.101 635.298 -200.615 638.381C-156.175 654.379 -110.231 670.96 -62.2816 671.501H-60.5071C-8.04385 671.501 38.4015 649.588 64.0159 612.676C70.0617 603.589 75.6131 594.13 80.6421 584.347C93.4879 560.35 105.639 537.728 128.438 530.188C149.037 523.564 168.981 532.687 190.159 542.311C201.991 548.286 214.38 552.881 227.115 556.018C265.999 563.933 302.338 541.978 337.519 520.772C371.08 500.484 405.837 479.528 442.793 484.403C467.018 487.61 488.737 501.775 509.76 515.44C530.784 529.105 552.194 543.144 576.612 546.685C623.984 553.601 663.833 520.273 702.331 488.027C736.509 459.406 771.768 429.702 813.198 426.577C828.891 426.076 844.586 427.473 859.991 430.743C881.941 434.368 904.662 438.117 926.033 430.743C959.748 418.912 980.348 382.5 994.544 352.13C1033.1 269.164 1056.81 179.087 1064.44 86.6252C1069.57 23.0925 1079.26 -45.8145 1129.83 -59.7292C1169.6 -70.8943 1199.84 -38.6072 1231.79 -4.52868C1251.07 15.8851 1270.82 37.1321 1293.51 49.2554C1335.48 71.8356 1387.71 61.7537 1425.82 54.1297C1487.93 41.9648 1556.56 23.9673 1585.37 -36.1492C1587.31 -40.2034 1589.02 -44.3766 1590.5 -48.6475L1590.54 -55.6465Z" fill="#FA5255" fill-opacity="0.1"/>
<path style="mix-blend-mode:screen" opacity="0.7" d="M1538.85 -206.623H1536.54C1540.84 -193.644 1544.1 -180.292 1546.3 -166.712C1552.39 -125.676 1547.3 -94.4303 1529.79 -65.2677C1524.13 -56.1566 1517.67 -47.6596 1510.5 -39.8963C1477.78 -3.69302 1433.96 21.8034 1380.3 35.8847C1341.15 46.175 1295.86 54.0489 1257.09 34.5516C1235.72 23.7614 1216.74 4.59747 1198.34 -13.9416C1167.25 -45.3538 1137.85 -74.9747 1099.01 -65.0594C1050.48 -52.5195 1038.91 10.7633 1031.65 69.0884C1024.79 123.452 1012.55 176.862 995.123 228.399C985.24 258.137 973.723 287.212 960.636 315.47C947.366 343.925 928.194 377.962 897.526 389.585C877.505 397.126 855.787 393.751 836.615 391.126L833.992 390.751C819.978 388.191 805.766 387.116 791.558 387.544C751.401 390.252 717.145 416.706 684.008 442.661C671.124 452.659 657.854 462.991 644.507 471.823C615.189 490.862 591.272 498.028 566.931 495.112C544.595 492.404 524.497 480.531 505.209 469.032C485.188 457.159 464.473 444.911 441.366 442.869C429.655 441.957 417.888 443.369 406.648 447.035C384.621 453.743 363.173 467.491 342.457 480.739C310.285 501.361 276.878 522.691 241.774 517.109C230.131 514.767 218.751 511.094 207.828 506.152C196.132 500.782 183.859 497.017 171.296 494.945C163.736 494.005 156.078 494.771 148.806 497.195C126.78 504.694 114.088 526.816 102.014 548.188C97.0294 557.329 91.5551 566.148 85.6191 574.601C59.5804 609.471 14.2537 629.01 -32.6932 624.844C-49.3642 622.961 -65.7402 618.76 -81.4145 612.345C-106.462 602.501 -130.937 591.037 -154.709 578.017C-177.379 566.704 -199.001 553.089 -219.285 537.356C-221.908 535.231 -224.377 533.19 -227 530.94V533.981C-224.994 535.731 -222.911 537.481 -220.789 539.189C-200.438 555.052 -178.738 568.793 -155.982 580.225C-132.099 593.3 -107.507 604.806 -82.3404 614.678C-66.4754 621.125 -49.9043 625.326 -33.0404 627.177C-29.1828 627.552 -24.978 627.718 -20.9275 627.718C22.2775 627.718 62.8593 608.388 87.085 575.642C93.0768 567.11 98.6025 558.207 103.634 548.979C115.593 528.149 127.975 506.235 149.231 498.986C156.259 496.679 163.657 495.984 170.949 496.945C183.382 499.006 195.517 502.786 207.056 508.193C218.122 513.168 229.643 516.868 241.427 519.233C277.457 524.899 310.864 503.402 343.499 482.572C364.099 469.365 385.431 455.742 407.188 449.243C418.155 445.751 429.618 444.439 441.019 445.369C463.702 447.369 484.185 459.492 504.013 471.24C523.841 482.989 543.862 494.82 566.661 497.57C591.503 500.569 615.845 493.404 645.587 473.99C658.973 465.283 672.32 454.909 685.204 444.827C718.11 419.247 752.095 392.835 791.635 390.168C805.713 389.748 819.795 390.808 833.683 393.334L836.306 393.751C855.594 396.584 877.737 399.792 898.22 392.085C929.66 380.295 949.102 345.633 962.526 316.804C975.722 288.424 987.316 259.208 997.245 229.316C1014.74 177.62 1027.04 124.041 1033.93 69.505C1040.87 11.9298 1052.25 -50.4781 1099.74 -62.5597C1137.31 -72.3084 1166.21 -43.0625 1197.07 -12.1085C1215.58 6.51389 1234.72 25.8028 1256.36 36.7596C1295.75 56.5901 1341.5 48.6329 1381.04 38.2594C1435.04 24.0947 1479.21 -1.60997 1512.19 -38.1465C1519.4 -46.0186 1525.86 -54.643 1531.48 -63.8929C1549.34 -93.5554 1554.63 -125.343 1548.34 -166.962C1546.23 -180.451 1543.06 -193.72 1538.85 -206.623Z" fill="#FA5255" fill-opacity="0.1"/>
<path style="mix-blend-mode:screen" opacity="0.7" d="M1503.67 -206.623H1501.47C1502.81 -199.618 1503.66 -192.516 1504.02 -185.376C1505.68 -148.506 1497.58 -121.76 1476.01 -93.0971C1469.45 -84.5717 1462.47 -76.4359 1455.1 -68.7255C1418.96 -29.8976 1385.01 3.5977 1335.52 20.1787C1289.23 35.5932 1250.42 36.2598 1220.02 22.1784C1199.69 12.6381 1181.45 -4.73447 1163.7 -21.4821C1133.92 -49.7281 1105.84 -76.3911 1069.27 -67.9339C1019.62 -56.4772 1008.51 8.6803 1001.22 51.7576C992.141 101.623 978.933 150.507 961.756 197.82C952.002 225.751 940.942 253.13 928.62 279.851C915.311 308.472 897.759 339.217 869.676 350.674C852.008 357.84 833.376 356.298 812.583 353.715L807.607 353.09C795.158 351.112 782.575 350.276 769.995 350.591C731.42 352.757 698.553 376.254 666.612 398.959C654.808 407.291 642.579 416.04 630.351 423.455C611.371 434.995 585.873 447.869 557.056 445.244C536.264 443.328 517.555 433.496 499.501 424.039C480.599 414.123 460.925 403.875 439.516 403.208C428.691 402.815 417.888 404.508 407.613 408.208C387.284 415.29 367.572 429.038 348.515 441.87C319.043 462.075 288.568 482.989 255.933 479.364C245.194 477.812 234.641 475.019 224.455 471.032C213.533 466.782 202.172 463.984 190.624 462.7C183.514 462.137 176.372 463.085 169.6 465.491C149.348 472.865 137.119 492.987 125.315 512.36C120.305 521.029 114.831 529.376 108.92 537.356C82.6114 570.685 38.7506 587.641 -2.94994 580.892C-19.1904 578.267 -32.3448 570.81 -45.0748 563.602L-47.0422 562.478C-68.6694 549.781 -89.5527 535.659 -109.574 520.192C-128.885 506.087 -147.055 490.241 -163.889 472.823C-191.972 443.119 -207.827 411.665 -212.34 376.629C-215.002 356.048 -213.767 334.718 -208.482 307.472C-206.129 295.765 -203.352 284.183 -200.767 273.06C-198.993 265.728 -197.334 258.812 -195.829 252.229C-193.862 243.439 -191.972 234.774 -190.776 226.441C-189.734 220.234 -189.04 214.36 -188.307 207.819V207.236C-187.193 199.814 -186.908 192.275 -187.458 184.781C-188.914 171.764 -193.249 159.317 -200.098 148.491C-206.947 137.665 -216.107 128.778 -226.806 122.581V125.247C-216.626 131.266 -207.915 139.808 -201.389 150.173C-194.864 160.537 -190.711 172.427 -189.272 184.864C-188.728 192.177 -189 199.534 -190.082 206.778V207.361C-190.815 213.86 -191.509 219.859 -192.551 225.858C-193.939 234.19 -195.637 242.772 -197.604 251.521C-199.07 258.229 -200.729 265.144 -202.503 272.352C-205.203 283.517 -207.981 295.098 -210.218 306.847C-215.735 334.385 -216.969 355.965 -214.076 376.837C-209.485 412.374 -193.438 444.286 -165.007 474.365C-148.155 491.827 -129.973 507.728 -110.654 521.9C-90.5568 537.403 -69.6105 551.579 -47.9294 564.352L-45.9621 565.436C-33.0777 572.726 -19.769 580.308 -3.14282 582.975C2.96025 583.972 9.12398 584.473 15.2965 584.474C33.2748 584.577 51.0671 580.543 67.4896 572.642C83.912 564.74 98.5878 553.152 110.54 538.648C116.525 530.689 122.052 522.341 127.089 513.651C138.662 494.529 150.736 474.782 170.449 467.824C176.944 465.503 183.802 464.597 190.624 465.158C202.01 466.436 213.205 469.235 223.954 473.49C234.299 477.476 245.005 480.269 255.894 481.822C289.07 485.28 319.892 464.2 349.672 443.786C368.613 430.829 388.248 417.373 408.269 410.457C418.302 406.803 428.855 405.096 439.438 405.416C460.54 406.208 479.017 415.915 498.537 426.247C516.783 435.829 535.685 445.702 556.864 447.66C586.413 450.368 612.297 437.287 631.547 425.622C643.852 418.164 656.119 409.457 667.924 401.042C699.633 378.462 732.423 355.215 770.266 353.007C782.717 352.738 795.167 353.574 807.491 355.507L812.506 356.132C833.568 358.756 852.471 360.298 870.601 352.965C899.495 341.3 917.201 310.055 930.664 281.059C943.035 254.274 954.133 226.825 963.917 198.82C981.097 151.369 994.292 102.345 1003.34 52.3409C1012.48 -1.81821 1025.14 -55.2274 1069.58 -65.4759C1105.03 -73.8081 1132.76 -47.4368 1162.16 -19.6491C1179.98 -2.73477 1198.42 14.7211 1219.06 24.4281C1249.92 38.7594 1289.27 38.0928 1336.02 22.5117C1386.17 5.84738 1420.31 -27.8979 1456.65 -66.9757C1464.05 -74.8201 1471.07 -83.0804 1477.67 -91.7223C1499.62 -120.885 1507.88 -148.131 1506.18 -185.626C1505.82 -192.682 1504.99 -199.7 1503.67 -206.623Z" fill="#FA5255" fill-opacity="0.1"/>
<path style="mix-blend-mode:screen" opacity="0.7" d="M1461.86 -206.62C1461.86 -205.828 1461.86 -204.995 1461.86 -204.162C1459.39 -167.584 1446.16 -146.712 1422.24 -120.882C1418.38 -116.716 1414.1 -112.55 1409.74 -107.967C1406.38 -104.593 1402.99 -101.135 1399.56 -97.552C1388.56 -86.0536 1378.92 -74.5136 1369.62 -63.3485C1345.55 -34.5609 1324.8 -9.73105 1290.27 4.4753C1267.43 13.8073 1223.03 26.9721 1182.57 9.76624C1163.28 1.43407 1145.42 -14.0638 1128.33 -29.145C1099.98 -54.1414 1073.17 -77.8048 1039.1 -70.8058C993.16 -61.3904 980.198 -5.98157 970.747 34.5127C959.648 79.7994 945.597 124.182 928.699 167.327C917.397 197.49 907.29 221.945 896.913 244.317C884.376 271.313 868.097 300.434 842.174 311.724C825.316 319.181 807.455 318.139 788.9 316.306L781.185 315.515C770.4 314.063 759.534 313.423 748.666 313.598C711.787 315.223 679.846 335.637 648.947 355.259C638.339 362.05 627.422 369.049 616.428 375.173C597.14 386.047 573.57 396.92 546.991 395.379C527.703 394.254 510.575 386.546 493.872 379.048C475.278 370.715 457.726 362.8 437.667 363.258C427.655 363.533 417.762 365.675 408.426 369.591C389.756 377.09 371.702 390.421 354.42 403.294C327.648 423.041 300.028 443.497 270.402 442.205C260.56 441.388 250.824 439.461 241.354 436.456C231.226 433.203 220.776 431.259 210.223 430.665C203.598 430.525 197.003 431.653 190.742 433.998C172.072 441.539 160.267 459.328 148.888 476.742C143.827 484.806 138.313 492.528 132.377 499.864C106.107 530.693 63.8277 545.316 27.1806 536.234C12.136 532.526 1.45052 523.527 -8.88782 514.82L-12.2439 511.987C-30.4096 496.412 -47.6606 479.632 -63.8971 461.744C-79.8684 445 -94.7795 427.115 -108.529 408.21C-131.675 375.34 -145.138 342.136 -149.227 306.766C-151.425 283.165 -150.751 259.355 -147.221 235.943C-146.527 230.443 -145.794 224.986 -145.061 219.612C-143.132 205.405 -141.203 191.949 -140.47 179.826C-139.888 171.759 -139.747 163.663 -140.046 155.579C-140.046 151.413 -140.547 147.497 -140.856 143.997C-140.856 142.747 -141.087 141.539 -141.165 140.373C-141.242 139.206 -141.165 138.206 -141.396 137.165C-141.542 132.644 -142.229 128.163 -143.441 123.833C-147.987 111.1 -155.051 99.5909 -164.138 90.1077C-173.226 80.6245 -184.119 73.3955 -196.058 68.9246C-202.677 66.4085 -209.641 65.1129 -216.658 65.0918C-220.055 65.1106 -223.446 65.403 -226.803 65.9666V68.2996C-216.724 66.5329 -206.396 67.5066 -196.752 71.1326C-185.091 75.4569 -174.448 82.4867 -165.571 91.7281C-156.694 100.969 -149.799 112.198 -145.369 124.625C-144.19 128.759 -143.541 133.049 -143.441 137.373L-143.209 140.581C-143.209 141.748 -143.209 142.997 -142.901 144.247C-142.592 147.705 -142.245 151.621 -142.09 155.746C-141.792 163.733 -141.933 171.732 -142.515 179.701C-143.325 191.741 -145.138 205.114 -147.067 219.32C-147.787 224.708 -148.52 230.166 -149.266 235.693C-152.829 259.326 -153.49 283.363 -151.233 307.183C-147.105 342.969 -133.642 376.548 -110.111 409.752C-96.3573 428.757 -81.4332 446.74 -65.4401 463.577C-49.1379 481.52 -31.8228 498.355 -13.5941 513.987L-10.238 516.82C0.254654 525.694 11.1331 534.859 26.6792 538.692C34.1086 540.513 41.7048 541.421 49.3232 541.4C65.1733 541.281 80.8364 537.69 95.3642 530.844C109.892 523.999 122.982 514.04 133.843 501.572C139.878 494.12 145.482 486.272 150.624 478.075C161.849 460.953 173.46 443.289 191.475 436.414C197.493 434.124 203.844 433.023 210.223 433.165C220.604 433.797 230.883 435.726 240.853 438.914C250.468 441.985 260.362 443.926 270.363 444.705C300.684 446.038 328.613 425.374 355.654 405.419C373.014 392.587 390.951 379.381 409.352 372.09C418.466 368.27 428.125 366.184 437.898 365.924C457.533 365.508 474.854 373.298 493.255 381.547C510.112 389.088 527.549 396.878 547.261 398.212C574.264 399.795 598.027 388.755 617.701 377.714C628.772 371.549 639.727 364.55 650.336 357.759C681.004 338.178 712.713 317.89 749.09 316.098C759.841 315.932 770.59 316.558 781.262 317.973L788.978 318.764C807.687 320.639 825.972 321.681 843.254 314.057C869.833 302.475 886.382 272.896 899.112 245.525C909.489 223.111 919.634 198.573 930.975 168.369C947.917 125.133 961.994 80.6525 973.1 35.2626C982.436 -4.60677 995.204 -59.2241 1039.8 -68.3478C1072.9 -75.1802 1099.28 -51.8918 1127.25 -27.2286C1144.45 -12.0224 1162.28 3.68373 1182.03 12.0576C1223.19 29.5551 1268.17 16.2236 1291.31 6.76665C1326.34 -7.60632 1348.25 -33.8526 1371.47 -61.6821C1380.77 -72.8055 1390.41 -84.3039 1401.33 -95.7606C1404.76 -99.3434 1408.16 -102.76 1411.48 -106.134C1415.87 -110.592 1420 -114.8 1424.05 -119.091C1448.05 -145.462 1461.66 -166.709 1463.94 -204.204C1463.94 -205.037 1463.94 -205.912 1463.94 -206.787L1461.86 -206.62Z" fill="#FA5255" fill-opacity="0.1"/>
<path style="mix-blend-mode:screen" opacity="0.7" d="M1415.53 -206.622C1407.54 -182.834 1392.38 -169.544 1371.01 -151.088L1365.61 -146.422C1358.55 -140.298 1351.3 -133.924 1344.05 -126.633C1329.49 -111.099 1316.56 -93.8874 1305.47 -75.3072C1289.12 -49.7691 1273.69 -25.6475 1245.02 -11.5245C1211.15 5.13982 1174.74 8.3477 1145.07 -2.85905C1126.52 -9.85806 1109.47 -23.6894 1092.92 -37.0626C1067.23 -57.893 1040.61 -79.4733 1008.98 -73.849C966.313 -66.3918 951.809 -20.1066 940.159 17.0965C928.2 55.1328 912.23 94.7522 895.334 136.663C885.806 160.285 876.046 184.74 864.897 208.611C853.325 233.941 837.894 261.354 814.324 272.685C799.781 279.643 784.621 280.184 764.909 278.768C761.437 278.518 757.965 278.185 754.532 277.893C745.483 276.913 736.391 276.454 727.297 276.518C691.614 277.56 660.445 295.016 630.279 311.888C621.213 316.971 611.839 322.22 602.427 326.969C583.718 336.51 561.344 346.217 537.427 345.717C519.913 345.342 504.136 339.676 488.898 334.218C471.385 327.928 454.836 322.012 436.242 323.678C427.075 324.567 418.107 327.087 409.702 331.136C392.69 339.051 376.334 352.174 360.517 364.839C336.485 384.128 311.603 404.084 284.87 405C275.908 404.963 266.975 403.916 258.214 401.876C248.884 399.722 239.363 398.674 229.822 398.751C223.659 399.061 217.585 400.469 211.846 402.917C194.872 409.999 183.531 425.956 172.576 441.37C167.323 448.921 161.628 456.102 155.525 462.867C129.409 490.988 88.8273 503.028 56.8864 492.03C42.189 487.03 33.4709 476.157 25.0613 465.617L22.0524 461.95C7.36987 443.437 -6.23499 423.958 -18.6837 403.625C-32.9183 380.962 -43.5652 362.464 -53.1706 343.634C-71.9957 306.889 -82.4497 272.81 -86.153 236.899C-88.1203 212.727 -88.1203 188.415 -86.153 164.242C-84.5621 145.349 -84.3042 126.353 -85.3815 107.417C-86.0275 99.6975 -87.4768 92.0811 -89.702 84.7119C-90.9953 80.5866 -92.5816 76.5752 -94.4468 72.7136L-95.1798 71.1305C-96.4411 68.1547 -98.0345 65.3566 -99.9246 62.7984C-109.337 50.0085 -129.589 27.1784 -159.332 18.0963C-164.997 16.3135 -170.867 15.4018 -176.768 15.3884C-188.474 16.0444 -200.011 18.7021 -210.946 23.2623L-216.694 25.2203L-226.839 28.5949V31.0112C-223.29 29.8863 -219.741 28.6782 -216.038 27.4283L-210.29 25.4703C-192.777 19.4711 -178.928 14.7218 -160.142 20.5127C-130.978 29.4697 -111.112 51.8832 -101.853 64.4648C-100.042 66.8842 -98.5251 69.5444 -97.34 72.3803L-96.5685 74.0051C-94.7715 77.7789 -93.2371 81.692 -91.978 85.7118C-89.6999 92.8885 -88.1983 100.326 -87.5032 107.875C-86.4263 126.7 -86.6842 145.585 -88.2747 164.367C-90.2226 188.666 -90.2226 213.1 -88.2747 237.399C-84.4171 273.769 -74.0016 307.972 -55.0608 345.009C-45.4169 363.881 -34.7313 382.503 -20.3425 405.167C-7.87494 425.557 5.76936 445.079 20.5094 463.617C21.4738 464.825 22.4767 466.033 23.4411 467.283C31.6964 477.532 40.9932 489.197 56.2692 494.363C64.4967 497.143 73.0698 498.548 81.6908 498.529C109.938 498.148 136.957 485.999 157.107 464.617C163.221 457.676 168.929 450.329 174.196 442.62C184.997 427.455 196.145 411.791 212.54 404.917C218.064 402.62 223.906 401.338 229.822 401.126C239.209 401.041 248.575 402.075 257.751 404.209C266.626 406.277 275.676 407.338 284.754 407.375C312.143 406.417 337.295 386.253 361.636 366.756C377.336 354.257 393.577 341.093 410.357 333.427C418.549 329.497 427.279 327.035 436.203 326.136C454.373 324.511 470.729 330.302 488.049 336.593C503.48 342.134 519.373 347.841 537.195 348.216C561.729 348.716 584.373 338.926 603.391 329.302C612.804 324.511 622.216 319.262 631.32 314.18C662.605 296.64 692.193 280.059 727.374 279.06C736.391 279.003 745.404 279.448 754.377 280.393C757.849 280.726 761.321 281.018 764.793 281.268C780.493 282.392 798.701 282.976 815.25 275.018C839.553 263.395 854.983 235.566 866.865 209.861C877.936 185.948 887.812 161.451 897.34 137.788C914.39 95.7521 930.399 55.966 942.474 17.8464C954.046 -18.7735 968.204 -64.3504 1009.6 -71.5577C1040.46 -76.9736 1065.38 -56.6848 1091.92 -35.1878C1108.58 -21.7314 1125.79 -7.77502 1144.61 -0.651031C1174.82 10.7224 1211.85 7.68114 1246.18 -9.3998C1275.38 -23.8144 1290.97 -48.186 1307.48 -74.0157C1318.43 -92.4574 1331.2 -109.568 1345.55 -125.05C1352.69 -132.341 1359.94 -138.632 1366.96 -144.672L1372.36 -149.38C1393.39 -167.627 1409.51 -181.667 1417.77 -206.705L1415.53 -206.622Z" fill="#FA5255" fill-opacity="0.1"/>
<path style="mix-blend-mode:screen" opacity="0.7" d="M1356.54 -206.623C1348.16 -199.218 1339.21 -192.611 1329.77 -186.876C1324.95 -183.709 1319.97 -180.46 1314.76 -176.835C1305.47 -170.577 1296.7 -163.469 1288.53 -155.588C1269.48 -136.674 1259.25 -114.511 1249.34 -93.0971C1237.3 -67.0591 1225.92 -42.4792 1200.08 -27.3563C1171.26 -10.4837 1136.78 -6.02597 1107.88 -15.3997C1090.18 -21.1488 1073.63 -33.2305 1057.73 -44.9372C1033.43 -62.6847 1008.32 -81.0154 979.193 -76.8494C939.652 -71.2668 923.18 -32.0223 909.872 -0.0684814C902.542 17.3874 894.248 35.4682 885.492 54.6322C877.776 71.2965 870.061 88.1691 862.346 106.292C859.221 113.457 856.097 120.79 852.972 128.122C846.684 142.953 840.126 158.284 833.26 173.199C821.687 198.195 808.186 222.734 786.969 233.94C772.426 241.606 756.455 242.272 741.372 241.481C736.936 241.481 732.384 240.981 728.025 240.689C720.888 240.148 713.52 239.648 706.268 239.731C671.125 240.148 641.461 254.187 610.06 268.894C603.155 272.185 595.979 275.601 588.804 278.809C570.905 286.85 549.92 295.473 527.7 295.973C512.986 295.765 498.36 293.496 484.187 289.224C467.599 285.058 451.937 280.892 434.616 283.975C426.306 285.508 418.265 288.417 410.777 292.599C395.346 300.931 380.803 313.887 366.646 326.386C345.275 345.216 323.171 364.714 299.292 367.755C291.159 368.474 282.979 368.321 274.874 367.297C266.411 366.209 257.869 366.041 249.375 366.797C243.637 367.404 238.011 368.905 232.672 371.254C217.473 378.128 206.672 392.085 196.256 405.375C190.878 412.584 185.053 419.391 178.82 425.747C152.627 451.201 114.745 460.284 86.7005 447.91C72.1188 441.453 64.9436 427.913 58.6172 415.956L56.4955 411.79C45.258 390.483 35.3103 368.412 26.7149 345.716C17.6496 322.595 9.62579 300.889 2.18065 279.059C-10.6748 243.183 -19.1429 205.649 -23.0094 167.408C-24.8996 146.078 -24.9768 125.122 -25.0539 104.917C-25.0539 100.959 -25.0539 97.0012 -25.0539 93.0851C-25.0539 74.0878 -25.9412 52.4242 -30.3388 35.5099C-32.1485 27.9076 -35.22 20.7228 -39.4042 14.3045C-41.6882 10.7616 -44.6148 7.75685 -48.0066 5.4724C-49.4185 4.6321 -50.9403 4.02808 -52.52 3.68098C-53.9321 3.30585 -55.3127 2.8042 -56.6476 2.18121C-60.8509 -0.0803833 -64.9103 -2.64124 -68.799 -5.48439C-81.1819 -13.8166 -99.8526 -26.7731 -122.612 -32.3556C-127.358 -33.5284 -132.21 -34.1293 -137.078 -34.147C-149.191 -34.147 -159.568 -30.2726 -171.064 -25.8149C-174.343 -24.6067 -177.699 -23.3569 -181.248 -22.1071C-195.99 -16.6051 -211.282 -12.9975 -226.806 -11.3586V-9.02556C-211.03 -10.6506 -195.49 -14.3008 -180.515 -19.899C-176.966 -21.1489 -173.571 -22.3987 -170.292 -23.6485C-154.862 -29.3977 -141.399 -34.397 -122.998 -29.8976C-100.624 -24.4401 -82.1463 -11.7335 -69.8791 -3.35968C-65.8983 -0.441269 -61.735 2.17574 -57.4191 4.47253C-55.9971 5.13295 -54.526 5.66254 -53.0215 6.05565C-51.6694 6.37172 -50.3691 6.90538 -49.1639 7.63876C-46.1112 9.84305 -43.4898 12.6741 -41.4487 15.9709C-37.4278 22.1583 -34.4624 29.0714 -32.692 36.3847C-28.3715 53.0491 -27.6771 74.5461 -27.5228 93.3767C-27.5228 97.2928 -27.5228 101.251 -27.5228 105.208C-27.5228 125.539 -27.5228 146.536 -25.4397 167.95C-21.5629 206.472 -13.0561 244.285 -0.133896 280.434C7.31125 302.056 15.2965 323.803 24.439 347.091C33.0804 369.895 43.0929 392.064 54.4124 413.457L56.4955 417.373C63.0149 429.871 70.3828 443.578 85.6589 450.368C94.5715 454.174 104.081 456.084 113.665 455.992C138.222 455.555 161.803 445.537 180.054 427.788C186.455 421.266 192.436 414.278 197.953 406.874C208.253 393.71 218.861 380.086 233.559 373.546C238.649 371.356 243.999 369.954 249.452 369.38C257.791 368.633 266.178 368.787 274.488 369.838C282.745 370.909 291.083 371.062 299.369 370.296C323.865 367.172 346.201 347.466 367.803 328.635C381.883 316.137 396.465 303.347 411.548 295.307C418.826 291.274 426.631 288.465 434.694 286.975C451.629 283.225 467.136 287.391 483.415 291.557C497.753 295.874 512.547 298.171 527.43 298.39C550.036 297.848 571.252 289.141 589.152 281.017C596.327 277.809 603.502 274.393 610.445 271.143C641.615 256.354 671.087 242.397 705.805 241.981C712.903 241.981 720.271 242.439 727.369 242.939C731.767 243.272 736.319 243.606 740.793 243.772C756.224 244.397 772.426 243.772 787.432 235.982C809.343 224.483 823.153 199.487 834.803 174.199C841.708 159.242 848.227 143.911 854.554 129.08C857.691 121.692 860.816 114.402 863.928 107.208C871.643 89.1273 879.589 72.088 887.073 55.632C895.869 36.468 904.162 18.3456 911.569 0.681412C924.569 -30.3559 940.732 -68.9755 979.038 -74.3081C1007.35 -78.4741 1031.04 -61.1016 1056.19 -42.8125C1072.35 -31.0225 1089.02 -18.8159 1107.03 -12.9833C1136.47 -3.40135 1171.53 -7.94238 1200.89 -25.1066C1227.31 -40.6045 1238.85 -65.476 1251.04 -91.7639C1260.84 -113.011 1271.02 -135.008 1289.61 -153.63C1297.69 -161.353 1306.36 -168.322 1315.54 -174.461C1320.7 -178.085 1325.68 -181.335 1330.5 -184.459C1340.79 -190.649 1350.49 -197.934 1359.44 -206.206L1356.54 -206.623Z" fill="#FA5255" fill-opacity="0.1"/>
<path style="mix-blend-mode:screen" opacity="0.7" d="M1264.62 -206.623L1261.03 -204.706C1250.92 -199.343 1241.5 -192.564 1233.03 -184.543C1211.93 -164.045 1203.75 -138.091 1195.88 -113.011C1187.24 -85.6398 1179.14 -59.7685 1154.99 -43.1458C1129.8 -26.2572 1099.46 -20.7642 1070.55 -27.8563C1053.61 -32.3556 1037.45 -42.7292 1021.86 -52.8528C999.142 -67.4757 975.572 -82.5986 949.147 -79.849C912.539 -76.1411 895.141 -45.3538 879.711 -18.2326L879.479 -17.7744L870.877 -2.73479C857.799 20.0537 842.986 45.8834 829.06 75.3792C823.891 86.4193 818.761 98.0844 813.63 109.374C809.772 118.54 805.413 128.038 801.17 137.329C790.484 160.534 778.025 183.572 758.929 194.696C745.119 202.778 730.113 203.778 717.19 203.736C711.597 203.736 705.926 203.403 700.448 203.07C694.971 202.736 689.84 202.486 684.594 202.403C648.062 202.195 616.777 214.193 583.718 226.9L574.537 230.441C557.216 237.065 537.581 244.605 517.483 246.105C504.868 246.704 492.229 245.937 479.756 243.814C463.824 241.689 448.895 239.648 432.539 244.189C425.159 246.394 418.107 249.719 411.592 254.062C397.568 263.991 384.457 275.346 372.437 287.974C353.767 306.347 334.44 325.469 313.416 330.51C306.005 332.052 298.474 332.819 290.927 332.801C283.468 332.819 276.023 333.502 268.668 334.843C263.527 335.888 258.516 337.58 253.739 339.884C240.431 346.466 230.285 358.173 220.487 369.505C214.835 376.34 208.751 382.743 202.279 388.669C176.202 411.082 141.021 417.248 116.679 403.708C101.943 395.376 96.774 379.586 92.1834 365.547L91.0262 362.006C83.2324 337.781 76.8928 313.038 72.0468 287.933C69.3079 274.435 66.569 260.645 63.753 246.272L57.5422 215.026C49.3199 176.355 43.4949 137.135 40.106 97.6261C39.0644 83.6697 38.4086 69.7133 37.7914 56.2569C37.2513 44.2586 36.7498 32.9268 35.9783 21.5535C34.1267 -4.73451 30.5391 -23.2736 24.6756 -36.7717C21.5335 -44.3965 16.7607 -51.1072 10.7497 -56.3523C7.28468 -59.4636 3.01315 -61.3408 -1.47888 -61.7265H-1.71033C-3.78835 -61.6211 -5.82388 -61.0538 -7.68961 -60.0601C-9.50452 -59.1576 -11.448 -58.5941 -13.4374 -58.3936C-19.2624 -58.0603 -28.2891 -62.0181 -39.7076 -67.0174C-54.5507 -74.1499 -70.0741 -79.5007 -85.9987 -82.9735C-104.631 -86.5147 -117.477 -81.2238 -132.29 -75.0996C-136.61 -73.3082 -141.085 -71.4751 -145.907 -69.8087C-163.782 -62.7372 -182.789 -59.6065 -201.804 -60.6017C-210.213 -60.81 -218.584 -60.6017 -226.839 -60.1017V-57.7687C-218.661 -58.3936 -210.213 -58.3936 -201.804 -58.3936C-182.615 -57.4395 -163.439 -60.5678 -145.367 -67.6007C-140.468 -69.3088 -135.993 -71.1418 -131.634 -72.9333C-117.052 -78.9324 -104.438 -84.0984 -86.3845 -80.6822C-70.6668 -77.2043 -55.3412 -71.9107 -40.672 -64.8927C-29.0992 -59.7268 -19.7639 -55.6857 -13.4374 -56.1023C-11.2169 -56.2843 -9.0463 -56.9057 -7.03381 -57.9354C-5.39983 -58.7755 -3.63217 -59.2704 -1.82607 -59.3935C2.28064 -59.0817 6.18724 -57.3591 9.32237 -54.4775C15.0486 -49.4685 19.5849 -43.0555 22.5539 -35.7718C28.3017 -22.5237 31.8507 -4.27626 33.6638 21.7201C34.4738 33.0935 34.9753 44.3836 35.5154 56.3402C36.1326 69.88 36.7498 83.8364 37.83 98.001C41.2138 137.593 47.0388 176.897 55.2663 215.651C57.4265 226.4 59.4711 236.773 61.477 246.897C64.2931 261.27 67.0319 275.059 69.8094 288.558C74.6702 313.759 81.0226 338.598 88.8273 362.922L89.9846 366.463C94.7294 380.92 100.053 397.292 115.522 405.916C124.857 410.903 135.159 413.416 145.572 413.248C166.658 412.859 187.022 404.884 203.436 390.585C210.025 384.623 216.201 378.149 221.914 371.213C231.558 360.047 241.549 348.549 254.472 342.05C259.095 339.802 263.952 338.165 268.938 337.176C276.178 335.851 283.506 335.168 290.849 335.134C298.527 335.177 306.19 334.395 313.725 332.801C335.327 327.552 354.847 308.346 373.749 289.766C385.581 277.239 398.499 265.966 412.325 256.104C418.84 251.831 425.896 248.603 433.272 246.522C449.088 242.064 464.132 244.106 479.563 246.23C492.18 248.334 504.958 249.102 517.714 248.522C538.121 246.98 557.872 239.398 575.347 232.732L584.528 229.191C617.047 216.693 647.754 204.819 683.475 204.819H684.632C689.879 204.819 695.202 205.194 700.41 205.486C705.617 205.778 711.597 206.111 717.229 206.152C730.422 206.152 745.814 205.153 760.048 196.82C779.606 185.405 792.336 162.034 803.176 138.495C807.458 129.205 811.624 119.706 815.675 110.541C820.612 99.2509 825.743 87.6275 830.912 76.629C844.799 47.1748 859.574 21.3868 872.613 -1.35999C875.583 -6.48427 878.438 -11.4836 881.215 -16.3996L881.485 -16.8162C896.607 -43.5207 913.735 -73.7665 949.263 -77.3493C975.07 -80.0989 998.254 -65.1427 1020.67 -50.6864C1036.41 -40.5628 1052.68 -29.856 1069.93 -25.6899C1099.42 -18.438 1130.37 -24.0365 1156.07 -41.271C1180.91 -58.3936 1189.36 -84.4733 1197.92 -112.261C1205.64 -137.258 1213.78 -162.712 1234.45 -182.834C1242.81 -190.697 1252.06 -197.363 1262 -202.665C1264.54 -204.081 1267.09 -205.373 1269.71 -206.623H1264.62Z" fill="#FA5255" fill-opacity="0.1"/>
<path style="mix-blend-mode:screen" opacity="0.7" d="M1171.07 -206.623C1153.63 -185.792 1148.54 -159.629 1143.64 -134.133C1138.05 -104.97 1132.72 -77.3909 1109.89 -59.1435C1098.88 -50.7007 1086.43 -44.7095 1073.25 -41.5194C1060.08 -38.3293 1046.45 -38.0041 1033.16 -40.5628C1016.8 -43.729 1000.87 -52.4361 985.481 -60.8933C964.534 -72.1833 942.777 -84.14 919.323 -82.7235C885.145 -80.7655 866.05 -56.4772 849.231 -35.1052C829.01 -10.4402 811.137 16.3575 795.88 44.8835C789.206 57.7984 782.919 71.7964 776.862 85.3362C774.432 90.8354 771.963 96.3347 769.456 102.001C760.236 122.123 748.933 144.536 731.381 156.16C721.197 162.825 709.509 166.075 693.461 166.658C686.556 166.908 679.535 166.658 672.784 166.2C669.621 166.2 666.496 165.867 663.372 165.783C627.11 164.7 596.095 171.699 560.76 182.448L551.347 185.447C537.114 190.412 522.538 194.145 507.757 196.612C497.612 197.803 487.408 198.318 477.204 198.154C461.388 198.154 446.344 198.154 430.913 204.778C424.375 207.557 418.192 211.225 412.513 215.693C400.241 225.979 388.818 237.395 378.373 249.813C362.364 267.686 345.853 286.183 327.646 293.39C320.831 295.862 313.819 297.647 306.699 298.723C300.419 299.723 294.198 301.114 288.067 302.889C283.448 304.334 278.956 306.216 274.642 308.513C263.757 315.255 253.842 323.675 245.209 333.51C239.12 340.129 232.554 346.217 225.574 351.715C204.589 367.338 170.873 376.462 146.493 359.673C131.603 349.424 128.517 330.968 125.817 314.679L125.392 312.179C121.113 285.031 118.408 257.62 117.291 230.108L116.558 215.151C115.555 194.529 114.475 173.241 112.701 150.827C111.698 137.329 110.502 123.206 109.306 108.583C107.3 82.6699 105.101 56.1736 103.211 27.8859L102.285 13.0963C100.935 -8.7756 99.662 -29.481 97.0003 -49.9365C93.567 -76.3078 87.8964 -95.7634 79.6411 -108.928C75.0779 -116.655 68.613 -122.858 60.9704 -126.842C57.5671 -128.538 53.8775 -129.459 50.1306 -129.55C48.3242 -129.567 46.527 -129.272 44.8071 -128.675C41.9651 -127.533 39.3478 -125.823 37.0919 -123.634C34.9591 -121.645 32.5511 -120.029 29.9554 -118.843C21.1215 -115.219 6.80981 -119.427 -10.0479 -124.301C-22.8777 -128.296 -35.9474 -131.331 -49.1638 -133.383C-67.6417 -135.924 -80.526 -130.092 -94.1434 -123.926C-99.0811 -121.801 -104.597 -119.427 -110.654 -117.302C-128.883 -109.906 -148.527 -107.515 -167.823 -110.345C-187.452 -112.569 -207.259 -112.205 -226.806 -109.261V-106.928C-207.336 -109.866 -187.609 -110.244 -168.055 -108.053C-148.398 -105.145 -128.38 -107.565 -109.805 -115.094C-103.826 -117.26 -98.5024 -119.677 -93.3333 -122.01C-79.3688 -128.3 -67.3717 -133.716 -49.4339 -131.3C-36.3056 -129.193 -23.3265 -126.117 -10.5879 -122.093C6.50121 -117.094 21.2758 -112.553 30.7269 -116.719C33.5348 -118.009 36.1381 -119.766 38.4421 -121.926C40.5009 -123.918 42.8805 -125.486 45.4629 -126.551C50.3704 -127.919 55.5721 -127.296 60.0832 -124.801C67.3813 -120.989 73.5427 -115.042 77.8667 -107.637C86.0833 -94.5969 91.4839 -75.5995 94.8786 -49.6032C97.6561 -29.2311 98.8134 -8.40065 100.164 13.263C100.472 18.1789 100.742 23.0949 101.089 28.0526C102.941 56.3819 104.947 82.8782 107.261 108.541C108.496 123.15 109.64 137.218 110.695 150.744C112.392 173.157 113.434 194.446 114.552 215.026L115.285 229.983C116.397 257.602 119.076 285.122 123.309 312.388L123.733 314.887C126.395 330.802 129.713 350.632 145.375 361.422C154.836 367.724 165.777 370.95 176.891 370.713C194.817 370.355 212.252 364.329 227.04 353.382C234.089 347.786 240.742 341.631 246.945 334.968C255.425 325.338 265.174 317.112 275.877 310.555C280.058 308.306 284.423 306.48 288.915 305.097C294.954 303.314 301.085 301.923 307.278 300.931C314.527 299.838 321.669 298.025 328.61 295.515C347.281 288.099 363.984 269.435 380.147 251.355C390.495 239.015 401.815 227.669 413.979 217.443C419.489 213.06 425.506 209.474 431.878 206.777C447.038 200.445 461.774 200.403 477.359 200.32C487.666 200.489 497.973 199.96 508.22 198.737C523.048 196.243 537.665 192.453 551.926 187.405L561.339 184.447C596.52 173.657 627.303 166.7 663.333 167.783C666.419 167.783 669.544 168.033 672.669 168.2C679.497 168.533 686.556 168.908 693.538 168.658C709.972 168.033 722.007 164.492 732.5 157.784C750.553 145.953 762.049 123.206 771.384 102.792C773.956 97.2373 776.425 91.6825 778.791 86.1277C784.847 72.6296 791.135 58.6732 797.732 45.8C812.901 17.5523 830.658 -8.97968 850.735 -33.3971C867.284 -54.2275 886.032 -78.2658 919.284 -80.1822C942.43 -81.4737 963.801 -69.767 984.516 -58.4353C999.947 -50.1031 1016.11 -41.1044 1032.77 -37.8965C1046.36 -35.2953 1060.29 -35.6352 1073.75 -38.8964C1087.22 -42.1576 1099.94 -48.2752 1111.2 -56.8938C1134.69 -75.8495 1140.05 -103.846 1145.92 -133.466C1150.86 -159.296 1156.02 -185.876 1174.16 -206.415L1171.07 -206.623Z" fill="#FA5255" fill-opacity="0.1"/>
<path style="mix-blend-mode:screen" opacity="0.7" d="M1100.21 -206.622C1095.68 -190.131 1092.93 -173.133 1091.99 -155.963C1089.17 -124.759 1086.47 -95.3047 1064.99 -74.7659C1055.44 -66.2674 1044.4 -59.9474 1032.54 -56.188C1020.67 -52.4287 1008.22 -51.308 995.934 -52.894C979.81 -54.6854 963.762 -61.851 948.216 -68.7251C929.352 -77.0572 909.64 -85.806 889.349 -85.681C856.83 -85.681 834.919 -66.4337 818.91 -52.3524C796.78 -33.8089 777.801 -11.2545 762.82 14.3049C755.105 27.8447 748.2 43.0509 741.565 57.7571L737.707 66.0893C728.835 85.5866 718.882 105.542 703.799 116.832C693.649 124.225 681.812 128.463 669.582 129.08C661.112 129.589 652.619 129.491 644.161 128.789H642.039C612.991 127.122 581.359 126.664 546.834 134.371C539.119 136.121 531.403 138.287 523.688 140.371C515.202 142.745 506.445 145.203 497.804 146.995C490.822 148.453 484.302 149.494 477.937 150.536C460.192 153.41 444.878 155.868 429.1 165.284C423.472 168.656 418.218 172.71 413.438 177.365C402.942 188.028 393.206 199.532 384.314 211.777C371.005 229.15 357.31 247.105 341.88 256.313C335.31 259.945 328.455 262.942 321.396 265.27C316.921 266.978 312.292 268.727 307.47 270.935C303.411 272.76 299.445 274.818 295.589 277.101C286.951 282.753 278.804 289.236 271.248 296.474C264.342 303.113 256.907 309.08 249.028 314.304C228.544 327.011 197.105 332.677 176.467 315.221C161.345 302.473 160.535 281.267 159.84 262.395V261.728C159.055 231.686 159.982 201.619 162.618 171.699L163.466 161.034C165.357 136.913 167.324 112 168.173 86.0448C169.407 46.9253 168.829 4.09802 166.36 -41.7289C165.333 -68.4583 162.561 -95.0761 158.066 -121.384C153.012 -148.381 145.336 -167.878 134.65 -181.043C128.521 -188.851 120.365 -194.496 111.235 -197.249C108.501 -198.023 105.69 -198.429 102.864 -198.457C98.9139 -198.522 95.0086 -197.55 91.4839 -195.624C87.8753 -193.357 84.6313 -190.473 81.8785 -187.083C79.4223 -184.071 76.6075 -181.423 73.5075 -179.21C61.5104 -171.336 42.6468 -175.043 20.427 -179.21C9.78009 -181.209 -1.17546 -183.376 -12.4396 -184.292C-30.9175 -185.959 -43.3003 -179.751 -56.5319 -173.21C-62.577 -170.083 -68.7706 -167.302 -75.0869 -164.878C-98.6182 -156.213 -110.962 -156.088 -133.915 -160.212C-169.251 -166.503 -200.343 -164.92 -226.806 -155.546V-153.088C-200.536 -162.587 -169.559 -164.212 -134.224 -157.921C-111.927 -153.755 -98.6953 -153.755 -74.3539 -162.712C-67.9633 -165.103 -61.7039 -167.885 -55.606 -171.044C-42.1431 -177.71 -30.4931 -183.542 -12.5553 -181.876C-1.44548 -180.918 9.51007 -178.835 20.0799 -176.835C42.5696 -172.669 61.9733 -168.919 74.6648 -177.251C77.916 -179.609 80.8721 -182.41 83.4601 -185.584C86.0671 -188.79 89.1265 -191.532 92.5254 -193.707C98.2304 -196.567 104.708 -197.071 110.733 -195.124C119.424 -192.414 127.18 -186.994 133.03 -179.543C143.446 -166.711 150.968 -147.506 155.944 -120.884C160.403 -94.7395 163.161 -68.2897 164.199 -41.7289C166.668 4.09802 167.247 46.9253 165.974 86.0032C165.087 111.958 163.158 136.871 161.268 160.993L160.458 171.616C157.808 201.632 156.867 231.796 157.642 261.937V262.645C158.336 280.892 159.223 303.639 175.039 317.054C184.706 324.828 196.514 328.863 208.562 328.511C223.109 328.362 237.386 324.25 250.069 316.554C258.046 311.238 265.584 305.188 272.598 298.473C280.068 291.22 288.139 284.722 296.708 279.059C300.469 276.849 304.331 274.847 308.28 273.06C313.064 270.852 317.654 269.102 322.129 267.436C329.316 265.016 336.298 261.936 342.999 258.229C358.699 248.814 372.625 230.691 386.049 213.152C394.876 200.988 404.535 189.555 414.943 178.948C419.669 174.417 424.844 170.463 430.373 167.158C445.804 157.993 460.964 155.535 478.477 152.702C484.842 151.661 491.439 150.619 498.421 149.161C507.139 147.328 515.935 144.995 524.46 142.495C532.175 140.412 539.89 138.329 547.605 136.496C581.899 128.872 613.184 129.33 642.271 130.955H644.392C652.939 131.7 661.524 131.797 670.084 131.247C682.646 130.62 694.811 126.299 705.265 118.749C720.695 107.125 730.879 86.8781 739.983 67.1308L743.841 58.7987C750.476 44.1757 757.304 29.0112 765.019 15.5547C779.825 -9.84915 798.639 -32.2543 820.607 -50.6443C840.512 -68.5168 859.8 -83.3897 889.195 -83.3897H889.465C909.447 -83.3897 928.658 -75.0575 947.329 -66.7253C962.991 -59.768 979.193 -52.5607 995.626 -50.6859C1008.2 -49.0757 1020.94 -50.2355 1033.09 -54.095C1045.24 -57.9545 1056.53 -64.4338 1066.3 -73.1411C1088.63 -94.3048 1091.45 -125.592 1094.19 -155.838C1095.13 -173.103 1097.94 -190.189 1102.56 -206.747L1100.21 -206.622Z" fill="#FA5255" fill-opacity="0.1"/>
<path style="mix-blend-mode:screen" opacity="0.7" d="M1041.22 -206.625C1040.65 -197.251 1040.57 -187.669 1040.49 -178.171C1040.49 -146.342 1040.14 -113.43 1019.74 -90.6828C1005.08 -74.2685 982.82 -65.0615 958.401 -65.6864C941.852 -65.978 925.612 -71.3939 908.253 -77.1431C892.321 -82.1424 875.888 -87.5583 859.223 -88.6415C830.831 -90.3912 808.418 -80.6842 788.475 -69.8941C764.821 -57.9005 744.487 -39.4299 729.492 -16.3183C720.971 -2.19038 713.429 12.5977 706.925 27.9254L705.729 30.5501C697.243 49.3391 688.563 67.0866 675.949 78.0017C667.263 85.5335 656.775 90.2437 645.705 91.5831C637.398 92.5836 629.015 92.5836 620.708 91.5831C611.99 90.8332 603.426 89.7084 595.132 88.6252C574.147 85.8756 554.319 83.2927 532.948 85.959C518.936 88.0591 505.097 91.3324 491.556 95.7492L487.968 96.8324C462.701 104.373 444.84 110.414 427.404 125.203C422.745 129.186 418.421 133.606 414.481 138.41C405.782 149.525 397.729 161.212 390.371 173.405C379.724 190.069 368.73 207.567 356.193 218.732C348.93 224.889 341.186 230.353 333.047 235.063L326.952 238.896L325.101 240.062C322.4 241.77 319.546 243.562 316.653 245.52C311.021 249.394 305.504 253.852 300.181 258.018C291.55 265.374 282.243 271.754 272.406 277.057C251.961 287.097 223.569 289.055 206.287 271.016C192.323 256.435 192.593 234.646 194.174 211.733C196.859 178.799 201.42 146.075 207.83 113.747L209.759 103.331C214.658 76.9602 219.75 49.714 223.376 21.6346C229.222 -22.5043 231.262 -67.1338 229.471 -111.68C228.674 -139.065 225.196 -166.282 219.094 -192.877C217.937 -197.751 216.625 -202.292 215.237 -206.667H212.961C214.388 -202.125 215.777 -197.376 217.011 -192.294C223.086 -165.837 226.539 -138.758 227.311 -111.513C229.042 -67.1296 226.963 -22.6681 221.1 21.3014C217.474 49.2974 212.421 76.5436 207.521 102.873L205.593 113.288C199.206 145.716 194.671 178.537 192.014 211.566C190.702 230.355 188.928 256.143 204.783 272.683C214.632 282.344 227.592 287.459 240.89 286.931C252.051 286.842 263.073 284.246 273.255 279.307C283.244 273.943 292.694 267.479 301.454 260.018C306.739 255.852 312.216 251.477 317.771 247.52C320.703 245.52 323.519 243.77 326.181 242.062L328.033 240.895L334.128 237.396C342.364 232.582 350.199 227.007 357.543 220.732C370.35 209.358 381.422 191.861 392.261 174.905C399.571 162.808 407.558 151.204 416.178 140.16C420.047 135.473 424.281 131.152 428.831 127.245C445.998 112.747 463.55 106.748 488.663 99.2487L492.25 98.1655C505.678 93.7247 519.399 90.3961 533.295 88.2086C554.435 85.5423 574.147 88.2086 595.016 90.8333C603.349 91.9164 611.913 93.0413 620.669 93.8328C629.13 94.8533 637.669 94.8533 646.129 93.8328C657.575 92.443 668.429 87.6069 677.453 79.8764C690.415 68.6697 699.21 50.7139 707.812 31.6749L709.008 29.0086C715.459 13.791 722.951 -0.88649 731.421 -14.9019C746.16 -37.6974 766.161 -55.9365 789.439 -67.8111C809.113 -78.4762 831.178 -88.0582 859.107 -86.3085C875.502 -85.3503 891.897 -79.8927 907.751 -74.6018C924.339 -69.0609 941.505 -63.3534 958.363 -63.0617C983.129 -62.6035 1006.2 -72.0605 1021.28 -88.9748C1042.27 -112.555 1042.46 -145.883 1042.77 -178.171C1042.77 -187.669 1042.77 -197.251 1043.5 -206.625H1041.22Z" fill="#FA5255" fill-opacity="0.1"/>
<path style="mix-blend-mode:screen" opacity="0.7" d="M990.802 -206.625H988.757C988.757 -204.584 988.989 -202.459 989.143 -200.501C991.342 -166.714 993.618 -131.719 974.754 -106.347C962.719 -90.1413 943.662 -80.0594 921.095 -77.8514C902.039 -76.0183 881.555 -80.6843 861.727 -85.1837C850.964 -87.5584 839.932 -90.0997 829.285 -91.7245C805.565 -95.1181 781.468 -93.7052 758.228 -87.5584C731.225 -80.5594 711.049 -67.3529 696.313 -47.2307C687.456 -34.1357 679.917 -20.0581 673.824 -5.2366C666.533 10.9278 659.01 27.6755 648.248 38.7989C641.009 46.5915 631.805 51.9092 621.785 54.0884C614.386 55.5511 606.817 55.7059 599.372 54.5467C588.044 52.7753 576.852 50.1017 565.888 46.5478C550.805 42.0901 535.259 37.5074 519.057 37.7157C504.964 38.2358 491.073 41.4958 478.051 47.3394C457.89 55.3225 439.859 68.5431 425.549 85.8339C421.846 90.3461 418.443 95.1351 415.365 100.165C408.46 111.289 402.288 123.829 396.309 135.952C388.993 152.058 380.316 167.398 370.385 181.779C363.201 191.144 355.12 199.663 346.276 207.192C343.421 209.692 340.373 212.108 337.519 214.316C324.48 224.564 310.516 235.146 295.741 240.021C276.839 246.52 251.225 246.478 236.064 226.814C222.948 209.817 224.491 185.403 228.349 161.615C234.572 125.788 242.777 90.3962 252.922 55.6299L255.391 46.8811C263.492 17.7185 271.901 -12.2773 278.536 -42.8563C288.787 -88.1703 293.469 -134.745 292.462 -181.379C292.154 -190.086 291.613 -198.459 290.842 -206.625H288.682C289.453 -198.293 290.032 -189.961 290.302 -181.295C291.297 -134.873 286.641 -88.5105 276.453 -43.3979C269.857 -12.8605 261.447 17.1769 253.308 46.2145L250.877 54.9633C240.702 89.8112 232.471 125.287 226.227 161.198C222.37 185.57 220.672 210.566 234.367 228.314C239.186 234.252 245.178 238.945 251.902 242.045C258.626 245.146 265.909 246.576 273.213 246.228C281.081 246.138 288.888 244.733 296.358 242.062C311.441 236.896 325.599 226.398 338.792 216.066C341.646 213.774 344.733 211.358 347.626 208.817C356.61 201.255 364.822 192.68 372.121 183.237C382.152 168.741 390.92 153.275 398.314 137.035C404.255 124.995 410.389 112.497 417.217 101.457C420.257 96.5335 423.608 91.8425 427.246 87.4171C441.303 70.3976 459.013 57.3652 478.822 49.4641C491.609 43.7156 505.253 40.5117 519.096 40.007C534.95 40.007 550.381 44.1731 565.387 48.7558C576.445 52.3061 587.725 54.9932 599.141 56.7964C606.831 57.9714 614.646 57.8026 622.286 56.2964C632.665 54.135 642.228 48.7319 649.791 40.7569C660.862 29.3419 668.577 12.4276 675.791 -4.02844C681.798 -18.7243 689.234 -32.6895 697.972 -45.6893C712.438 -65.3948 732.305 -78.3513 758.729 -85.2254C781.7 -91.3308 805.525 -92.7437 828.976 -89.3915C839.584 -87.9333 850.54 -85.2254 861.187 -83.059C881.131 -78.518 901.807 -73.8103 921.172 -75.685C944.318 -77.8931 963.914 -88.1833 976.297 -104.848C995.585 -130.927 993.386 -166.381 991.149 -200.668L990.802 -206.625Z" fill="#FA5255" fill-opacity="0.1"/>
<path style="mix-blend-mode:screen" opacity="0.7" d="M939.344 -206.625C942.778 -176.129 943.973 -145.884 929.546 -122.137C908.985 -88.2252 865.317 -78.9348 799.352 -94.5159C750.4 -106.098 695.583 -115.305 663.141 -77.56C653.227 -65.9783 646.476 -50.7304 639.995 -35.8992C629.541 -12.2775 619.666 9.92772 597.986 16.6351C579.856 22.1343 562.766 13.4272 544.636 4.13686C531.983 -2.2789 518.906 -8.90297 505.25 -10.5277C464.514 -15.2771 431.956 25.4672 416.525 61.7954C411.433 73.7937 407.036 86.417 402.792 98.6653C393.38 125.703 383.697 153.658 365.875 175.404C357.821 184.91 347.941 192.4 336.927 197.351C325.912 202.302 314.029 204.594 302.109 204.067C294.975 203.815 287.996 201.752 281.737 198.046C275.477 194.341 270.114 189.096 266.079 182.737C253.349 161.906 257.67 133.702 262.877 111.538C273.061 68.0862 288.338 25.5089 303.112 -15.652C313.798 -45.4812 324.869 -76.3102 333.973 -107.306C343.73 -139.573 350.45 -172.819 354.032 -206.542H351.872C348.26 -173.087 341.553 -140.107 331.851 -108.097C322.824 -77.1434 311.753 -46.356 300.99 -16.4436C286.216 24.8006 270.901 67.4196 260.679 110.997C255.355 133.66 250.957 162.406 264.15 184.028C268.371 190.742 274.021 196.266 280.625 200.136C287.229 204.007 294.596 206.112 302.109 206.275C303.652 206.275 305.234 206.275 306.815 206.275C318.269 206.042 329.56 203.3 340.003 198.216C350.447 193.131 359.826 185.81 367.572 176.696C385.626 154.657 395.424 126.703 404.875 99.2901C409.119 87.0835 413.478 74.2937 418.531 62.587C433.73 26.9253 465.478 -13.0691 505.134 -8.2364C518.443 -6.69495 531.327 -0.112534 543.71 6.21991C561.378 15.2186 579.701 24.509 598.565 18.7181C621.17 11.8858 631.277 -10.9444 641.963 -35.066C648.405 -49.6472 655.079 -64.7285 664.8 -76.0602C696.393 -112.888 750.592 -103.765 798.967 -92.3496C865.742 -76.5185 910.335 -86.1421 931.436 -120.929C946.211 -145.259 945.054 -175.879 941.62 -206.708L939.344 -206.625Z" fill="#FA5255" fill-opacity="0.1"/>
<g style="mix-blend-mode:screen">
<path style="mix-blend-mode:screen" d="M1590.54 537.854C1513.66 541.145 1455.84 621.175 1420.15 690.416C1417.34 695.832 1414.56 701.247 1411.74 706.747C1374.02 780.403 1335.02 856.726 1263.96 881.722C1195.91 905.594 1124.47 872.057 1055.34 839.645C982.048 805.191 906.169 769.613 835.459 804.4C803.364 820.231 778.714 848.518 754.913 875.931C738.402 894.887 721.352 914.467 701.909 929.84C602.885 1008.16 482.027 964.877 399.551 925.674C391.18 921.508 382.038 917.925 372.548 913.967C348.168 904.052 320.509 892.762 301.26 874.473C290.343 864.099 282.859 846.685 275.607 829.896C265.462 806.358 255.008 782.028 234.601 775.237C221.849 771.043 208.584 768.951 195.253 769.03C150.505 769.03 105.41 790.901 65.6384 813.94L55.2229 819.606C6.65584 847.893 -43.5314 877.139 -97.5377 873.223C-137.772 870.349 -174.689 848.893 -210.411 828.188C-215.863 825.022 -221.341 821.869 -226.844 818.731V823.98L-212.455 832.312C-176.348 853.143 -139.161 874.931 -97.8463 878.139C-42.6056 882.305 8.16029 852.559 57.2674 823.98L67.5672 817.981C118.295 788.818 177.663 761.114 233.444 779.653C252.037 785.819 261.643 808.149 272.02 831.812C278.963 848.768 286.678 866.474 298.251 877.639C318.079 896.512 346.124 907.927 370.89 918.009C380.495 921.925 389.599 925.632 397.893 929.59C447.154 953.129 509.994 978 574.03 978C618.393 978 663.295 966.043 704.533 933.423C724.283 917.8 741.488 898.053 758.115 878.931C781.646 851.893 805.987 823.938 837.311 808.482C906.169 774.529 977.766 808.149 1053.61 843.727C1123.43 876.514 1195.68 910.385 1265.27 885.971C1337.91 860.433 1379.15 779.986 1415.49 708.996L1423.86 692.707C1458.96 624.758 1515.67 545.811 1590.51 542.478L1590.54 537.854Z" fill="#FA5255" fill-opacity="0.1"/>
<path style="mix-blend-mode:screen" d="M1590.55 -59.7705C1588.61 -52.0931 1585.95 -44.6519 1582.6 -37.5653C1554.44 21.1348 1486.66 38.8406 1425.33 50.8806C1376.49 60.4625 1332.94 66.7117 1295.02 46.2979C1272.76 34.3412 1253.12 13.3859 1234.1 -6.8613C1201.43 -41.7314 1170.57 -74.6434 1128.87 -63.1034C1076.29 -48.6471 1066.3 21.593 1061.05 86.2923C1053.51 178.31 1029.95 267.963 991.617 350.547C977.691 380.334 957.554 415.996 924.957 427.453C904.319 434.66 882.987 431.119 860.381 427.453C844.746 424.151 828.818 422.754 812.894 423.286C770.461 426.578 734.817 456.615 700.291 485.403C660.558 518.731 623.139 550.144 576.848 543.395C553.201 539.978 531.869 526.064 511.269 512.649C489.975 498.776 467.948 484.403 443.029 481.112C405.031 476.112 369.734 497.359 335.787 517.898C299.526 539.77 265.271 560.434 227.775 552.768C215.272 549.649 203.106 545.125 191.475 539.27C170.798 529.813 149.389 520.023 127.67 527.022C103.638 534.729 90.599 559.059 77.9846 582.514C73.0369 592.201 67.5624 601.563 61.5899 610.552C36.2455 647.047 -9.96841 668.46 -62.3545 667.96C-109.803 667.46 -155.515 650.963 -199.723 635.007C-208.519 631.84 -217.584 628.383 -226.726 624.633V629.591C-218.124 633.132 -209.56 636.423 -201.189 639.423C-156.673 655.462 -110.613 672.085 -62.5088 672.751H-60.5029C-7.73102 672.751 39.0616 650.671 64.9074 613.468C70.9664 604.324 76.5306 594.81 81.5722 584.972C94.3023 561.225 106.338 538.812 128.751 531.604C149.003 525.064 168.754 534.104 189.662 543.686C201.558 549.689 214.011 554.312 226.81 557.476C266.081 565.433 302.612 543.395 337.948 522.064C371.354 501.9 405.918 481.028 442.527 485.861C466.56 489.027 488.201 503.109 509.109 516.732C530.017 530.355 551.812 544.561 576.347 548.144C624.181 555.101 664.184 521.606 702.876 489.235C736.938 460.698 772.312 431.202 813.164 428.036C828.767 427.556 844.37 428.954 859.687 432.202C881.791 435.868 904.628 439.659 926.23 432.202C960.331 420.245 981.124 383.584 995.397 353.046C1034.01 269.951 1057.77 179.732 1065.41 87.1255C1070.5 24.0094 1080.11 -44.4393 1129.95 -58.1874C1169.34 -69.0609 1199.39 -37.107 1231.1 -3.27847C1250.38 17.2186 1270.29 38.3823 1293.13 50.8806C1335.56 73.669 1387.87 63.3788 1426.14 55.8799C1488.47 43.6316 1557.29 25.5508 1586.46 -35.024C1588 -38.2458 1589.39 -41.4953 1590.62 -44.7726L1590.55 -59.7705Z" fill="#FA5255" fill-opacity="0.1"/>
<path style="mix-blend-mode:screen" d="M938.264 -206.625C941.659 -176.296 942.893 -146.217 928.659 -122.762C908.368 -89.4332 864.932 -80.1845 799.584 -95.6407C750.361 -107.306 695.082 -116.471 662.331 -78.3514C652.301 -66.6447 645.512 -51.3136 638.954 -36.4823C628.616 -13.0689 618.817 9.01129 597.601 15.4271C579.894 20.8013 562.882 12.1775 544.983 2.92882C532.292 -3.52861 519.137 -10.236 505.327 -11.8608C464.128 -16.7351 431.03 24.5924 415.407 61.2956C410.315 73.2939 405.917 85.9588 401.635 98.2071C392.3 125.162 382.617 152.991 364.949 174.571C357.019 183.948 347.284 191.335 336.428 196.215C325.572 201.095 313.858 203.348 302.109 202.817C295.136 202.578 288.313 200.567 282.194 196.948C276.075 193.329 270.832 188.203 266.889 181.987C254.391 161.531 258.711 133.702 263.842 111.747C274.026 68.3363 289.263 25.8423 304.038 -15.3186C314.762 -45.1478 325.833 -76.0184 334.899 -106.972C344.67 -139.365 351.403 -172.737 354.997 -206.583H350.715C347.126 -173.221 340.471 -140.327 330.848 -108.389C321.783 -77.5182 310.75 -46.7309 299.987 -16.7351C285.251 24.2591 269.937 66.9198 259.676 110.58C254.352 133.452 249.916 162.406 263.533 184.57C267.815 191.422 273.548 197.071 280.257 201.049C286.967 205.027 294.458 207.219 302.109 207.442C303.691 207.442 305.272 207.442 306.893 207.442C318.525 207.236 329.996 204.474 340.607 199.324C351.219 194.174 360.748 186.744 368.614 177.488C386.822 155.282 396.62 126.995 406.11 99.6652C410.353 87.5003 414.712 74.9187 419.766 63.0454C434.772 27.7587 466.057 -11.9441 505.25 -7.27808C518.366 -5.73662 531.173 0.804123 543.594 7.09489C561.455 16.177 579.933 25.5923 599.182 19.5931C622.328 12.5941 632.936 -11.5275 643.274 -34.8159C649.678 -49.3138 656.352 -64.3117 665.918 -75.5185C697.126 -111.888 751.017 -102.806 799.083 -91.4329C866.359 -75.5185 911.3 -85.3088 932.671 -120.595C947.6 -145.217 946.481 -176.004 943.048 -207L938.264 -206.625Z" fill="#FA5255" fill-opacity="0.1"/>
</g>
</svg>
