<?xml version="1.0" standalone="no"?>
<!DOCTYPE svg PUBLIC "-//W3C//DTD SVG 20010904//EN"
 "http://www.w3.org/TR/2001/REC-SVG-20010904/DTD/svg10.dtd">
<svg version="1.0" xmlns="http://www.w3.org/2000/svg"
 width="80.000000pt" height="80.000000pt" viewBox="0 0 80.000000 80.000000"
 preserveAspectRatio="xMidYMid meet">
<metadata>
Created by potrace 1.11, written by Peter Selinger 2001-2013
</metadata>
<g transform="translate(0.000000,80.000000) scale(0.100000,-0.100000)"
fill="#000000" stroke="none">
<path d="M426 791 c-2 -4 -3 -127 -3 -274 l1 -268 63 63 63 62 0 211 0 210
-61 1 c-33 0 -62 -2 -63 -5z"/>
<path d="M217 623 c-2 -5 -4 -76 -4 -160 l0 -152 32 25 c27 20 35 22 46 12 51
-48 49 -54 49 121 l0 161 -59 0 c-33 0 -62 -3 -64 -7z"/>
<path d="M5 286 c0 -196 -7 -187 77 -104 l48 47 0 116 0 115 -63 0 -62 0 0
-174z"/>
<path d="M606 448 c3 -7 18 -24 34 -38 l29 -25 -121 -122 -122 -122 -40 32
c-23 17 -54 44 -71 59 -16 15 -34 28 -38 28 -5 0 -68 -58 -140 -130 l-132
-130 59 0 59 0 74 72 c41 40 77 73 82 73 4 0 36 -25 71 -55 34 -30 66 -56 70
-58 4 -1 73 63 154 143 81 80 149 145 151 145 3 0 20 -15 40 -34 l35 -34 0
104 0 104 -100 0 c-75 0 -98 -3 -94 -12z"/>
</g>
</svg>
